<svg version="1.1" baseProfile="full" xmlns="http://www.w3.org/2000/svg" xmlns:xlink="http://www.w3.org/1999/xlink" viewbox="-400 -0 1800.001999999999953 1500.001999999999953" winpro-url="http://www.winpro.be" winpro-info="software for windows and doors manufacturer" winpro-version="WinPro 10.6.0.5130" viewBox="-1.499000000000038 0 979.0000000000001 1462.001">
<defs>
<marker id="markerArrow1" markerWidth="13" markerHeight="13" refx="9" refy="6" orient="auto">
<path d="M2,2 L2,10 L10,6 Z" fill="#000000"/>
</marker>
<marker id="markerArrow2" markerWidth="13" markerHeight="13" refx="2" refy="6" orient="auto">
<path d="M10,2 L10,10 L2,6 Z" fill="#000000"/>
</marker>
</defs>
<g>
<path d="M253.740431789388197 1320.000999999999749 L381.920548210611798 189.001000000000204 L472.496705056613791 189.001000000000204 L344.316588635390246 1320.000999999999749 L253.740431789388197 1320.000999999999749" style="stroke:#58606A;stroke-width:1;fill:#262E38" code="ALU PORTAIL" transom_id="1" data-transom_id="1" data-transomInLeaf_id="-1" sash_id="1" data-sash_id="1" leaf_id="1" data-leaf_id="1" origin="t" data-set_id="0" data-set_part_id="0"/>
<path d="M137.001000000000005 114.000999999999976 L873.000999999999976 114.000999999999976 L873.000999999999976 204.000999999999976 L137.001000000000005 204.000999999999976 L137.001000000000005 114.000999999999976" style="stroke:#58606A;stroke-width:1;fill:#262E38" code="ALU 1VTL" sash_id="1" data-sash_id="1" leaf_id="1" data-leaf_id="1" origin="S" data-set_id="0" data-set_part_id="0"/>
<path d="M873.000999999999976 1455.000999999999976 L137.001000000000005 1455.000999999999976 L137.001000000000005 1305.000999999999976 L873.000999999999976 1305.000999999999976 L873.000999999999976 1455.000999999999976" style="stroke:#58606A;stroke-width:1;fill:#262E38" code="ALU 1VTL" sash_id="1" data-sash_id="1" leaf_id="1" data-leaf_id="1" origin="S" data-set_id="0" data-set_part_id="0"/>
<path d="M872.000999999999863 1458.000999999999976 L872.000999999999863 104.000999999999976 L975.00100000000009 104.000999999999976 L975.00100000000009 1458.000999999999976 L872.000999999999863 1458.000999999999976" style="stroke:#58606A;stroke-width:1;fill:#262E38" code="ALU 1VTL" sash_id="1" data-sash_id="1" leaf_id="1" data-leaf_id="1" origin="S" data-set_id="0" data-set_part_id="0"/>
<path d="M48.000999999999962 1458.000999999999976 L48.000999999999962 104.000999999999976 L138.001000000000033 104.000999999999976 L138.001000000000033 1458.000999999999976 L48.000999999999962 1458.000999999999976" style="stroke:#58606A;stroke-width:1;fill:#262E38" code="ALU 1VTL" sash_id="1" data-sash_id="1" leaf_id="1" data-leaf_id="1" origin="S" data-set_id="0" data-set_part_id="0"/>
<path d="M350.704050331020426 1148.200999999999567 L888.000999999999976 1148.200999999999567 L888.000999999999976 1320.000999999999976 L331.233365979856615 1320.000999999999749 L350.704050331020426 1148.200999999999567" style="stroke:#58606A;stroke-width:1;fill:#2C343E" code="ALU PORTAIL" sash_id="1" data-sash_id="1" leaf_id="1" data-leaf_id="1" data-fillingTotal_id="1" origin="p" data-set_id="0" data-set_part_id="0"/>
<path d="M888.000999999999976 1152.900999999999613 L350.171383180551857 1152.901000000000067 L377.881408348535331 908.40099999999984 L888.000999999999976 908.400999999999613 L888.000999999999976 1152.900999999999613" style="stroke:#58606A;stroke-width:1;fill:#2C343E" code="ALU PORTAIL" sash_id="1" data-sash_id="1" leaf_id="1" data-leaf_id="1" data-fillingTotal_id="1" origin="p" data-set_id="0" data-set_part_id="0"/>
<path d="M888.000999999999976 913.100999999999658 L377.348741198066762 913.100999999999885 L405.058766366050293 668.600999999999203 L888.000999999999976 668.600999999999658 L888.000999999999976 913.100999999999658" style="stroke:#58606A;stroke-width:1;fill:#2C343E" code="ALU PORTAIL" sash_id="1" data-sash_id="1" leaf_id="1" data-leaf_id="1" data-fillingTotal_id="1" origin="p" data-set_id="0" data-set_part_id="0"/>
<path d="M888.000999999999976 673.300999999999704 L404.526099215582008 673.301000000000158 L432.236124383565311 428.800999999999931 L888.000999999999976 428.800999999999704 L888.000999999999976 673.300999999999704" style="stroke:#58606A;stroke-width:1;fill:#2C343E" code="ALU PORTAIL" sash_id="1" data-sash_id="1" leaf_id="1" data-leaf_id="1" data-fillingTotal_id="1" origin="p" data-set_id="0" data-set_part_id="0"/>
<path d="M888.000999999999976 433.500999999999749 L431.703457233096799 433.500999999999976 L459.413482401080273 189.000999999999749 L888.000999999999976 189.000999999999976 L888.000999999999976 433.500999999999749" style="stroke:#58606A;stroke-width:1;fill:#2C343E" code="ALU PORTAIL" sash_id="1" data-sash_id="1" leaf_id="1" data-leaf_id="1" data-fillingTotal_id="1" origin="p" data-set_id="0" data-set_part_id="0"/>
<path d="M268.836457930388519 1320.000999999999749 L122.001000000000005 1320.000999999999976 L122.001000000000005 189.000999999999976 L397.016574351612064 189.000999999999749 L268.836457930388519 1320.000999999999749" style="stroke:#000000;stroke-width:1" fill-opacity="0" fill="none" code="ALU PORTAIL" sash_id="1" data-sash_id="1" leaf_id="1" data-leaf_id="1" filling_id="2" data-filling_id="2" data-fillingTotal_id="2" origin="p" data-set_id="0" data-set_part_id="0"/>
<path d="M278.857654289093375 1253.778777777777577 L273.052463831270018 1305.000999999999749 L255.440433333436317 1305.000999999999749 L261.245623791259675 1253.778777777777577 L278.857654289093375 1253.778777777777577" style="stroke:#58606A;stroke-width:1;fill:#2C343E" code="ALU PORTAIL" sash_id="1" data-sash_id="1" leaf_id="1" data-leaf_id="1" data-fillingTotal_id="2" origin="p" data-set_id="0" data-set_part_id="0"/>
<path d="M119.501000000000005 1305.000999999999976 L119.501000000000005 1253.778777777777577 L137.001000000000005 1253.778777777777577 L137.001000000000005 1305.000999999999976 L119.501000000000005 1305.000999999999976" style="stroke:#58606A;stroke-width:1;fill:#2C343E" code="ALU PORTAIL" sash_id="1" data-sash_id="1" leaf_id="1" data-leaf_id="1" data-fillingTotal_id="2" origin="p" data-set_id="0" data-set_part_id="0"/>
<path d="M293.729519648506425 1122.556555555555406 L287.924329190683011 1173.778777777777577 L270.312298692849311 1173.778777777777577 L276.117489150672668 1122.556555555555406 L293.729519648506425 1122.556555555555406" style="stroke:#58606A;stroke-width:1;fill:#2C343E" code="ALU PORTAIL" sash_id="1" data-sash_id="1" leaf_id="1" data-leaf_id="1" data-fillingTotal_id="2" origin="p" data-set_id="0" data-set_part_id="0"/>
<path d="M119.501000000000005 1173.778777777777577 L119.501000000000005 1122.556555555555406 L137.001000000000005 1122.556555555555406 L137.001000000000005 1173.778777777777577 L119.501000000000005 1173.778777777777577" style="stroke:#58606A;stroke-width:1;fill:#2C343E" code="ALU PORTAIL" sash_id="1" data-sash_id="1" leaf_id="1" data-leaf_id="1" data-fillingTotal_id="2" origin="p" data-set_id="0" data-set_part_id="0"/>
<path d="M308.601385007919418 991.334333333333234 L302.796194550096061 1042.556555555555406 L285.184164052262304 1042.556555555555406 L290.989354510085661 991.334333333333234 L308.601385007919418 991.334333333333234" style="stroke:#58606A;stroke-width:1;fill:#2C343E" code="ALU PORTAIL" sash_id="1" data-sash_id="1" leaf_id="1" data-leaf_id="1" data-fillingTotal_id="2" origin="p" data-set_id="0" data-set_part_id="0"/>
<path d="M119.501000000000005 1042.556555555555406 L119.501000000000005 991.334333333333234 L137.001000000000005 991.334333333333234 L137.001000000000005 1042.556555555555406 L119.501000000000005 1042.556555555555406" style="stroke:#58606A;stroke-width:1;fill:#2C343E" code="ALU PORTAIL" sash_id="1" data-sash_id="1" leaf_id="1" data-leaf_id="1" data-fillingTotal_id="2" origin="p" data-set_id="0" data-set_part_id="0"/>
<path d="M323.473250367332128 860.112111111111176 L317.668059909508997 911.334333333333234 L300.056029411675297 911.334333333333234 L305.861219869498427 860.112111111111062 L323.473250367332128 860.112111111111176" style="stroke:#58606A;stroke-width:1;fill:#2C343E" code="ALU PORTAIL" sash_id="1" data-sash_id="1" leaf_id="1" data-leaf_id="1" data-fillingTotal_id="2" origin="p" data-set_id="0" data-set_part_id="0"/>
<path d="M119.501000000000005 911.334333333333234 L119.501000000000005 860.112111111110948 L137.001000000000005 860.112111111110948 L137.001000000000005 911.334333333333234 L119.501000000000005 911.334333333333234" style="stroke:#58606A;stroke-width:1;fill:#2C343E" code="ALU PORTAIL" sash_id="1" data-sash_id="1" leaf_id="1" data-leaf_id="1" data-fillingTotal_id="2" origin="p" data-set_id="0" data-set_part_id="0"/>
<path d="M338.345115726745348 728.88988888888889 L332.539925268922048 780.112111111110607 L314.927894771088347 780.112111111110607 L320.733085228911591 728.88988888888889 L338.345115726745348 728.88988888888889" style="stroke:#58606A;stroke-width:1;fill:#2C343E" code="ALU PORTAIL" sash_id="1" data-sash_id="1" leaf_id="1" data-leaf_id="1" data-fillingTotal_id="2" origin="p" data-set_id="0" data-set_part_id="0"/>
<path d="M119.501000000000005 780.112111111110948 L119.501000000000005 728.889888888888663 L137.001000000000005 728.889888888888663 L137.001000000000005 780.112111111110948 L119.501000000000005 780.112111111110948" style="stroke:#58606A;stroke-width:1;fill:#2C343E" code="ALU PORTAIL" sash_id="1" data-sash_id="1" leaf_id="1" data-leaf_id="1" data-fillingTotal_id="2" origin="p" data-set_id="0" data-set_part_id="0"/>
<path d="M353.216981086158341 597.667666666666832 L347.411790628334984 648.88988888888889 L329.799760130501227 648.88988888888889 L335.604950588324584 597.667666666666719 L353.216981086158341 597.667666666666832" style="stroke:#58606A;stroke-width:1;fill:#2C343E" code="ALU PORTAIL" sash_id="1" data-sash_id="1" leaf_id="1" data-leaf_id="1" data-fillingTotal_id="2" origin="p" data-set_id="0" data-set_part_id="0"/>
<path d="M119.501000000000005 648.889888888888663 L119.501000000000005 597.667666666666378 L137.001000000000005 597.667666666666378 L137.001000000000005 648.889888888888663 L119.501000000000005 648.889888888888663" style="stroke:#58606A;stroke-width:1;fill:#2C343E" code="ALU PORTAIL" sash_id="1" data-sash_id="1" leaf_id="1" data-leaf_id="1" data-fillingTotal_id="2" origin="p" data-set_id="0" data-set_part_id="0"/>
<path d="M368.088846445571392 466.445444444444547 L362.283655987747977 517.667666666666719 L344.671625489914277 517.667666666666719 L350.476815947737691 466.445444444444547 L368.088846445571392 466.445444444444547" style="stroke:#58606A;stroke-width:1;fill:#2C343E" code="ALU PORTAIL" sash_id="1" data-sash_id="1" leaf_id="1" data-leaf_id="1" data-fillingTotal_id="2" origin="p" data-set_id="0" data-set_part_id="0"/>
<path d="M119.501000000000005 517.667666666666378 L119.501000000000005 466.445444444444092 L137.001000000000005 466.445444444444092 L137.001000000000005 517.667666666666378 L119.501000000000005 517.667666666666378" style="stroke:#58606A;stroke-width:1;fill:#2C343E" code="ALU PORTAIL" sash_id="1" data-sash_id="1" leaf_id="1" data-leaf_id="1" data-fillingTotal_id="2" origin="p" data-set_id="0" data-set_part_id="0"/>
<path d="M382.960711804984328 335.223222222222375 L377.15552134716097 386.445444444444547 L359.543490849327213 386.445444444444547 L365.348681307150571 335.223222222222375 L382.960711804984328 335.223222222222375" style="stroke:#58606A;stroke-width:1;fill:#2C343E" code="ALU PORTAIL" sash_id="1" data-sash_id="1" leaf_id="1" data-leaf_id="1" data-fillingTotal_id="2" origin="p" data-set_id="0" data-set_part_id="0"/>
<path d="M119.501000000000005 386.445444444444092 L119.501000000000005 335.223222222221921 L137.001000000000005 335.223222222221921 L137.001000000000005 386.445444444444092 L119.501000000000005 386.445444444444092" style="stroke:#58606A;stroke-width:1;fill:#2C343E" code="ALU PORTAIL" sash_id="1" data-sash_id="1" leaf_id="1" data-leaf_id="1" data-fillingTotal_id="2" origin="p" data-set_id="0" data-set_part_id="0"/>
<path d="M397.832577164397378 204.000999999999749 L392.027386706573964 255.22322222222283 L374.415356208740206 255.22322222222283 L380.220546666563564 204.000999999999749 L397.832577164397378 204.000999999999749" style="stroke:#58606A;stroke-width:1;fill:#2C343E" code="ALU PORTAIL" sash_id="1" data-sash_id="1" leaf_id="1" data-leaf_id="1" data-fillingTotal_id="2" origin="p" data-set_id="0" data-set_part_id="0"/>
<path d="M119.501000000000005 255.223222222221921 L119.501000000000005 204.000999999999976 L137.001000000000005 204.000999999999976 L137.001000000000005 255.223222222221921 L119.501000000000005 255.223222222221921" style="stroke:#58606A;stroke-width:1;fill:#2C343E" code="ALU PORTAIL" sash_id="1" data-sash_id="1" leaf_id="1" data-leaf_id="1" data-fillingTotal_id="2" origin="p" data-set_id="0" data-set_part_id="0"/>
<path d="M267.546722596980544 1322.500999999999749 L123.001000000000005 1322.500999999999976 L123.001000000000005 1305.000999999999976 L269.530057731703266 1305.000999999999749 L267.546722596980544 1322.500999999999749" style="stroke:#58606A;stroke-width:1;fill:#2C343E" code="ALU PORTAIL" sash_id="1" data-sash_id="1" leaf_id="1" data-leaf_id="1" data-fillingTotal_id="2" origin="p" data-set_id="0" data-set_part_id="0"/>
<path d="M123.001000000000005 186.500999999999976 L396.293506199553406 186.500999999999749 L394.310171064830627 204.000999999999749 L123.001000000000005 204.000999999999976 L123.001000000000005 186.500999999999976" style="stroke:#58606A;stroke-width:1;fill:#2C343E" code="ALU PORTAIL" sash_id="1" data-sash_id="1" leaf_id="1" data-leaf_id="1" data-fillingTotal_id="2" origin="p" data-set_id="0" data-set_part_id="0"/>
<path d="M274.32884644679325 1253.778777777777577 L123.001000000000005 1253.778777777777577 L123.001000000000005 1173.778777777777577 L283.395521348382886 1173.778777777777577 L274.32884644679325 1253.778777777777577" style="stroke:#AFA287;stroke-width:1;fill:#FAEDD2" code="ALU PORTAIL" sash_id="1" data-sash_id="1" leaf_id="1" data-leaf_id="1" data-fillingTotal_id="2" origin="p" data-set_id="0" data-set_part_id="0"/>
<path d="M289.2007118062063 1122.556555555555406 L123.001000000000005 1122.556555555555406 L123.001000000000005 1042.556555555555406 L298.267386707795936 1042.556555555555406 L289.2007118062063 1122.556555555555406" style="stroke:#AFA287;stroke-width:1;fill:#FAEDD2" code="ALU PORTAIL" sash_id="1" data-sash_id="1" leaf_id="1" data-leaf_id="1" data-fillingTotal_id="2" origin="p" data-set_id="0" data-set_part_id="0"/>
<path d="M304.072577165619293 991.334333333333234 L123.001000000000005 991.334333333333234 L123.001000000000005 911.334333333333234 L313.139252067208986 911.334333333333234 L304.072577165619293 991.334333333333234" style="stroke:#AFA287;stroke-width:1;fill:#FAEDD2" code="ALU PORTAIL" sash_id="1" data-sash_id="1" leaf_id="1" data-leaf_id="1" data-fillingTotal_id="2" origin="p" data-set_id="0" data-set_part_id="0"/>
<path d="M318.944442525032116 860.112111111110607 L123.001000000000005 860.112111111110948 L123.001000000000005 780.112111111110948 L328.011117426621411 780.112111111111176 L318.944442525032116 860.112111111110607" style="stroke:#AFA287;stroke-width:1;fill:#FAEDD2" code="ALU PORTAIL" sash_id="1" data-sash_id="1" leaf_id="1" data-leaf_id="1" data-fillingTotal_id="2" origin="p" data-set_id="0" data-set_part_id="0"/>
<path d="M333.816307884445223 728.889888888889345 L123.001000000000005 728.889888888888663 L123.001000000000005 648.889888888888663 L342.882982786034859 648.88988888888889 L333.816307884445223 728.889888888889345" style="stroke:#AFA287;stroke-width:1;fill:#FAEDD2" code="ALU PORTAIL" sash_id="1" data-sash_id="1" leaf_id="1" data-leaf_id="1" data-fillingTotal_id="2" origin="p" data-set_id="0" data-set_part_id="0"/>
<path d="M348.688173243858216 597.667666666666719 L123.001000000000005 597.667666666666378 L123.001000000000005 517.667666666666378 L357.754848145447852 517.667666666666832 L348.688173243858216 597.667666666666719" style="stroke:#AFA287;stroke-width:1;fill:#FAEDD2" code="ALU PORTAIL" sash_id="1" data-sash_id="1" leaf_id="1" data-leaf_id="1" data-fillingTotal_id="2" origin="p" data-set_id="0" data-set_part_id="0"/>
<path d="M363.560038603271266 466.445444444444547 L123.001000000000005 466.445444444444092 L123.001000000000005 386.445444444444092 L372.626713504860902 386.445444444444547 L363.560038603271266 466.445444444444547" style="stroke:#AFA287;stroke-width:1;fill:#FAEDD2" code="ALU PORTAIL" sash_id="1" data-sash_id="1" leaf_id="1" data-leaf_id="1" data-fillingTotal_id="2" origin="p" data-set_id="0" data-set_part_id="0"/>
<path d="M378.43190396268426 335.223222222221921 L123.001000000000005 335.223222222221921 L123.001000000000005 255.223222222221921 L387.498578864273838 255.22322222222283 L378.43190396268426 335.223222222221921" style="stroke:#AFA287;stroke-width:1;fill:#FAEDD2" code="ALU PORTAIL" sash_id="1" data-sash_id="1" leaf_id="1" data-leaf_id="1" data-fillingTotal_id="2" origin="p" data-set_id="0" data-set_part_id="0"/>
<path d="M457.400678915613582 189.000999999999294 L888.000999999999976 189.000999999999976 L888.000999999999976 1320.000999999999976 L329.220562494389924 1320.000999999999749 L457.400678915613582 189.000999999999294" style="stroke:#000000;stroke-width:1" fill-opacity="0" fill="none" code="ALU PORTAIL" sash_id="1" data-sash_id="1" leaf_id="1" data-leaf_id="1" filling_id="1" data-filling_id="1" data-fillingTotal_id="1" origin="p" data-set_id="0" data-set_part_id="0"/>
<path d="M253.740431789388197 1320.000999999999749 L381.920548210611798 189.001000000000204 L472.496705056613791 189.001000000000204 L344.316588635390246 1320.000999999999749 L253.740431789388197 1320.000999999999749" style="stroke:#58606A;stroke-width:1;fill:#262E38" code="ALU PORTAIL" transom_id="1" data-transom_id="1" data-transomInLeaf_id="-1" sash_id="1" data-sash_id="1" leaf_id="1" data-leaf_id="1" origin="t" data-set_id="0" data-set_part_id="0"/>
<path d="M137.001000000000005 1455.000999999999976 L137.001000000000005 1377.500999999999976 L873.000999999999976 1377.500999999999976 L873.000999999999976 1455.000999999999976 L137.001000000000005 1455.000999999999976" style="stroke:#58606A;stroke-width:1;fill:#262E38" code="ALU 1VTL" sash_id="1" data-sash_id="1" leaf_id="1" data-leaf_id="1" origin="S" data-set_id="0" data-set_part_id="0"/>
<path d="M137.001000000000005 131.500999999999976 L137.001000000000005 114.000999999999976 L873.000999999999976 114.000999999999976 L873.000999999999976 131.500999999999976 L137.001000000000005 131.500999999999976" style="stroke:#58606A;stroke-width:1;fill:#262E38" code="ALU 1VTL" sash_id="1" data-sash_id="1" leaf_id="1" data-leaf_id="1" origin="S" data-set_id="0" data-set_part_id="0"/>
<path d="M48.000999999999962 1458.000999999999976 L48.000999999999962 104.000999999999976 L65.501000000000033 104.000999999999976 L65.501000000000033 1458.000999999999976 L48.000999999999962 1458.000999999999976" style="stroke:#58606A;stroke-width:1;fill:#262E38" code="ALU 1VTL" sash_id="1" data-sash_id="1" leaf_id="1" data-leaf_id="1" origin="S" data-set_id="0" data-set_part_id="0"/>
<path d="M956.500999999999863 1457.000999999999976 L956.500999999999863 105.000999999999976 L975.00100000000009 105.000999999999976 L975.00100000000009 1457.000999999999976 L956.500999999999863 1457.000999999999976" style="stroke:#58606A;stroke-width:1;fill:#262E38" code="ALU 1VTL" sash_id="1" data-sash_id="1" leaf_id="1" data-leaf_id="1" origin="S" data-set_id="0" data-set_part_id="0"/>
<path d="M873.000999999999863 116.000999999999976 L873.000999999999863 104.000999999999976 L890.500999999999863 104.000999999999976 L890.500999999999863 116.000999999999976 L873.000999999999863 116.000999999999976" style="stroke:#58606A;stroke-width:1;fill:#262E38" code="ALU 1VTL" sash_id="1" data-sash_id="1" leaf_id="1" data-leaf_id="1" origin="S" data-set_id="0" data-set_part_id="0"/>
<path d="M119.501000000000033 116.000999999999976 L119.501000000000033 104.000999999999976 L137.001000000000033 104.000999999999976 L137.001000000000033 116.000999999999976 L119.501000000000033 116.000999999999976" style="stroke:#58606A;stroke-width:1;fill:#262E38" code="ALU 1VTL" sash_id="1" data-sash_id="1" leaf_id="1" data-leaf_id="1" origin="S" data-set_id="0" data-set_part_id="0"/>
<path d="M137.001000000000005 114.000999999999976 L873.000999999999976 114.000999999999976 L873.000999999999976 204.000999999999976 L137.001000000000005 204.000999999999976 L137.001000000000005 114.000999999999976" style="stroke:#58606A;stroke-width:1;fill:#262E38" code="ALU 1VTL" sash_id="1" data-sash_id="1" leaf_id="1" data-leaf_id="1" origin="S" data-set_id="0" data-set_part_id="0"/>
<path d="M873.000999999999976 1455.000999999999976 L137.001000000000005 1455.000999999999976 L137.001000000000005 1305.000999999999976 L873.000999999999976 1305.000999999999976 L873.000999999999976 1455.000999999999976" style="stroke:#58606A;stroke-width:1;fill:#262E38" code="ALU 1VTL" sash_id="1" data-sash_id="1" leaf_id="1" data-leaf_id="1" origin="S" data-set_id="0" data-set_part_id="0"/>
<g code="ALU 1VTL">
<rect x="-1.499000000000038" y="100.000999999999976" width="36" height="4" stroke="#171F29" stroke-width="0.1%" fill="#171F29" fill-opacity="1" stroke-opacity="1" sash_id="1" data-sash_id="1" leaf_id="1" origin="S" data-set_id="0" data-set_part_id="0"/>
<rect x="-1.499000000000038" y="100.000999999999976" width="36" height="4" stroke="#171F29" stroke-width="0.1%" fill="#171F29" fill-opacity="1" stroke-opacity="1" sash_id="1" data-sash_id="1" leaf_id="1" origin="S" data-set_id="0" data-set_part_id="0"/>
<data-no-click>true</data-no-click>
</g>
<path d="M0.000999999999962 1500.000999999999976 L0.000999999999962 104.000999999999976 L32.001000000000033 104.000999999999976 L32.001000000000033 1500.000999999999976 L0.000999999999962 1500.000999999999976" style="stroke:#58606A;stroke-width:1;fill:#262E38" code="ALU 1VTL" sash_id="1" data-sash_id="1" leaf_id="1" data-leaf_id="1" origin="S" data-set_id="0" data-set_part_id="0"/>
<path d="M872.000999999999863 1458.000999999999976 L872.000999999999863 104.000999999999976 L975.00100000000009 104.000999999999976 L975.00100000000009 1458.000999999999976 L872.000999999999863 1458.000999999999976" style="stroke:#58606A;stroke-width:1;fill:#262E38" code="ALU 1VTL" sash_id="1" data-sash_id="1" leaf_id="1" data-leaf_id="1" origin="S" data-set_id="0" data-set_part_id="0"/>
<g code="ALU 1VTL">
<path d="M975.00100000000009 1486.000999999999976 A6 6 0  0,0 969.00100000000009 1480.000999999999976" stroke="#000000" stroke-width="0.2%" fill="none" fill-opacity="0" stroke-opacity="1"/>
<path d="M921.00100000000009 1480.000999999999976 A6 6 0  0,0 915.00100000000009 1486.000999999999976" stroke="#000000" stroke-width="0.2%" fill="none" fill-opacity="0" stroke-opacity="1"/>
<path d="M1000.00100000000009 1462.000999999999976 L921.00100000000009 1480.000999999999976 L915.00100000000009 1500.000999999999976 L975.00100000000009 1500.000999999999976 L975.00100000000009 1486.000999999999976 L1000.00100000000009 1462.000999999999976" stroke="#000000" stroke-width="0.2%" fill="#808080" fill-opacity="1" stroke-opacity="1" sash_id="1" data-sash_id="1" leaf_id="1" origin="S" data-set_id="0" data-set_part_id="0"/>
<rect x="935.00100000000009" y="1480.000999999999976" width="20" height="-18" stroke="#000000" stroke-width="0.2%" fill="#808080" fill-opacity="1" stroke-opacity="1" sash_id="1" data-sash_id="1" leaf_id="1" origin="S" data-set_id="0" data-set_part_id="0"/>
<path d="M975.00100000000009 1486.000999999999976 A6 6 0  0,0 969.00100000000009 1480.000999999999976" stroke="#000000" stroke-width="0.2%" fill="none" fill-opacity="0" stroke-opacity="1"/>
<path d="M921.00100000000009 1480.000999999999976 A6 6 0  0,0 915.00100000000009 1486.000999999999976" stroke="#000000" stroke-width="0.2%" fill="none" fill-opacity="0" stroke-opacity="1"/>
<path d="M975.00100000000009 1486.000999999999976 L921.00100000000009 1480.000999999999976 L915.00100000000009 1500.000999999999976 L975.00100000000009 1500.000999999999976 L975.00100000000009 1486.000999999999976 L975.00100000000009 1486.000999999999976" stroke="#000000" stroke-width="0.2%" fill="#808080" fill-opacity="1" stroke-opacity="1" sash_id="1" data-sash_id="1" leaf_id="1" origin="S" data-set_id="0" data-set_part_id="0"/>
<rect x="935.00100000000009" y="1480.000999999999976" width="20" height="-18" stroke="#000000" stroke-width="0.2%" fill="#808080" fill-opacity="1" stroke-opacity="1" sash_id="1" data-sash_id="1" leaf_id="1" origin="S" data-set_id="0" data-set_part_id="0"/>
<data-no-click>true</data-no-click>
</g>
<g code="ALU 1VTL">
<path d="M1000.00100000000009 60.000999999999976 A90 30 0  0,0 910.00100000000009 90.000999999999976" stroke="#000000" stroke-width="0.2%" fill="none" fill-opacity="0" stroke-opacity="1"/>
<path d="M1000.00100000000009 100.000999999999976 L910.00100000000009 100.000999999999976 L1000.00100000000009 100.000999999999976 L1000.00100000000009 100.000999999999976" stroke="#000000" stroke-width="0.2%" fill="#262E38" fill-opacity="1" stroke-opacity="1" sash_id="1" data-sash_id="1" leaf_id="1" origin="S" data-set_id="0" data-set_part_id="0"/>
<path d="M1000.00100000000009 60.000999999999976 A90 30 0  0,0 910.00100000000009 90.000999999999976" stroke="#000000" stroke-width="0.2%" fill="none" fill-opacity="0" stroke-opacity="1"/>
<path d="M1000.00100000000009 100.000999999999976 L910.00100000000009 100.000999999999976 L1000.00100000000009 100.000999999999976 L1000.00100000000009 100.000999999999976" stroke="#000000" stroke-width="0.2%" fill="#262E38" fill-opacity="1" stroke-opacity="1" sash_id="1" data-sash_id="1" leaf_id="1" origin="S" data-set_id="0" data-set_part_id="0"/>
<data-no-click>true</data-no-click>
</g>
<g code="ALU 1VTL">
<rect x="870.500999999999863" y="1458.000999999999976" width="107.000000000000227" height="4" stroke="#171F29" stroke-width="0.1%" fill="#171F29" fill-opacity="1" stroke-opacity="1" sash_id="1" data-sash_id="1" leaf_id="1" origin="S" data-set_id="0" data-set_part_id="0"/>
<rect x="870.500999999999863" y="1458.000999999999976" width="107.000000000000227" height="4" stroke="#171F29" stroke-width="0.1%" fill="#171F29" fill-opacity="1" stroke-opacity="1" sash_id="1" data-sash_id="1" leaf_id="1" origin="S" data-set_id="0" data-set_part_id="0"/>
<data-no-click>true</data-no-click>
</g>
<g code="ALU 1VTL">
<rect x="870.500999999999863" y="100.000999999999976" width="107.000000000000227" height="4" stroke="#171F29" stroke-width="0.1%" fill="#171F29" fill-opacity="1" stroke-opacity="1" sash_id="1" data-sash_id="1" leaf_id="1" origin="S" data-set_id="0" data-set_part_id="0"/>
<rect x="870.500999999999863" y="100.000999999999976" width="107.000000000000227" height="4" stroke="#171F29" stroke-width="0.1%" fill="#171F29" fill-opacity="1" stroke-opacity="1" sash_id="1" data-sash_id="1" leaf_id="1" origin="S" data-set_id="0" data-set_part_id="0"/>
<data-no-click>true</data-no-click>
</g>
<path d="M48.000999999999962 1458.000999999999976 L48.000999999999962 104.000999999999976 L138.001000000000033 104.000999999999976 L138.001000000000033 1458.000999999999976 L48.000999999999962 1458.000999999999976" style="stroke:#58606A;stroke-width:1;fill:#262E38" code="ALU 1VTL" sash_id="1" data-sash_id="1" leaf_id="1" data-leaf_id="1" origin="S" data-set_id="0" data-set_part_id="0"/>
<g code="ALU 1VTL">
<rect x="46.500999999999962" y="1458.000999999999976" width="94.000000000000071" height="4" stroke="#171F29" stroke-width="0.1%" fill="#171F29" fill-opacity="1" stroke-opacity="1" sash_id="1" data-sash_id="1" leaf_id="1" origin="S" data-set_id="0" data-set_part_id="0"/>
<rect x="46.500999999999962" y="1458.000999999999976" width="94.000000000000071" height="4" stroke="#171F29" stroke-width="0.1%" fill="#171F29" fill-opacity="1" stroke-opacity="1" sash_id="1" data-sash_id="1" leaf_id="1" origin="S" data-set_id="0" data-set_part_id="0"/>
<data-no-click>true</data-no-click>
</g>
<g code="ALU 1VTL">
<rect x="46.500999999999962" y="100.000999999999976" width="94.000000000000071" height="4" stroke="#171F29" stroke-width="0.1%" fill="#171F29" fill-opacity="1" stroke-opacity="1" sash_id="1" data-sash_id="1" leaf_id="1" origin="S" data-set_id="0" data-set_part_id="0"/>
<rect x="46.500999999999962" y="100.000999999999976" width="94.000000000000071" height="4" stroke="#171F29" stroke-width="0.1%" fill="#171F29" fill-opacity="1" stroke-opacity="1" sash_id="1" data-sash_id="1" leaf_id="1" origin="S" data-set_id="0" data-set_part_id="0"/>
<data-no-click>true</data-no-click>
</g>
<path d="M15.500999999999962 1500.000999999999976 L15.500999999999962 109.000999999999976 L66.501000000000033 109.000999999999976 L66.501000000000033 1500.000999999999976 L15.500999999999962 1500.000999999999976" style="stroke:#58606A;stroke-width:1;fill:#262E38" code="ALU 1VTL" sash_id="1" data-sash_id="1" leaf_id="1" data-leaf_id="1" origin="S" data-set_id="0" data-set_part_id="0"/>
<path d="M1000.001999999999953 1500.001999999999953 L1000.001999999999953 0 L1400.001999999999953 0 L1400.001999999999953 1500.001999999999953 L1000.001999999999953 1500.001999999999953" style="stroke:#000000;stroke-width:1" fill-opacity="0" fill="none" code="ALU PORTAIL" leaf_id="0" data-leaf_id="0" origin="F" data-set_id="0" data-set_part_id="0"/>
<path d="M-400 1500.001999999999953 L-400 0 L0 0 L0 1500.001999999999953 L-400 1500.001999999999953" style="stroke:#000000;stroke-width:1" fill-opacity="0" fill="none" code="ALU PORTAIL" leaf_id="0" data-leaf_id="0" origin="F" data-set_id="0" data-set_part_id="0"/>
<path d="M0 1500.001999999999953 L0 100 L1000.001999999999953 100 L1000.001999999999953 1500.001999999999953 L0 1500.001999999999953" style="stroke:#000000;stroke-width:1" fill-opacity="0" fill="none" code="" leaf_id="0" data-leaf_id="0" origin="F" data-set_id="0" data-set_part_id="0"/>
<path d="M0.001 1500.000999999999976 L0.001 100.000999999999976 L1000.000999999999976 100.000999999999976 L1000.000999999999976 1500.000999999999976 L0.001 1500.000999999999976" style="stroke:#000000;stroke-width:1" fill-opacity="0" fill="none" stroke-dasharray="8" code="" leaf_id="0" data-leaf_id="0" origin="?" data-set_id="0" data-set_part_id="0"/>
<g code="ALU 2VTX">
<rect x="80.001000000000005" y="403.000999999999976" rx="10" ry="10" width="120" height="20" stroke="#000000" stroke-width="0.1%" fill="#C8C8C8" fill-opacity="1" stroke-opacity="1" sash_id="1" data-sash_id="1" leaf_id="1" origin="S" data-set_id="0" data-set_part_id="0"/>
<rect x="85.001000000000005" y="483.000999999999976" rx="10" ry="10" width="10" height="25" stroke="#000000" stroke-width="0.1%" fill="#C8C8C8" fill-opacity="1" stroke-opacity="1" sash_id="1" data-sash_id="1" leaf_id="1" origin="S" data-set_id="0" data-set_part_id="0"/>
<circle cx="90.001000000000005" cy="483.000999999999976" r="9" stroke="#000000" stroke-width="0.1%" fill="#C8C8C8" fill-opacity="1" stroke-opacity="1" sash_id="1" data-sash_id="1" leaf_id="1" origin="S" data-set_id="0" data-set_part_id="0"/>
<data-no-click>true</data-no-click>
</g>
</g>
<g/>
</svg>