<svg version="1.1" baseProfile="full" xmlns="http://www.w3.org/2000/svg" xmlns:xlink="http://www.w3.org/1999/xlink" viewbox="-400 -0 1800.001999999999953 1500.001999999999953" winpro-url="http://www.winpro.be" winpro-info="software for windows and doors manufacturer" winpro-version="WinPro 10.6.0.5130" viewBox="-1.499000000000038 0 979.0000000000001 1462.001">
<defs>
<marker id="markerArrow1" markerWidth="13" markerHeight="13" refx="9" refy="6" orient="auto">
<path d="M2,2 L2,10 L10,6 Z" fill="#000000"/>
</marker>
<marker id="markerArrow2" markerWidth="13" markerHeight="13" refx="2" refy="6" orient="auto">
<path d="M10,2 L10,10 L2,6 Z" fill="#000000"/>
</marker>
</defs>
<g>
<path d="M137.001000000000005 204.000999999999976 L137.001000000000005 114.000999999999976 L873.000999999999976 114.000999999999976 L873.000999999999976 204.000999999999976 L137.001000000000005 204.000999999999976" style="stroke:#58606A;stroke-width:1;fill:#262E38" code="ALU 1VTL" sash_id="1" data-sash_id="1" leaf_id="1" data-leaf_id="1" origin="S" data-set_id="0" data-set_part_id="0"/>
<path d="M873.000999999999976 1455.000999999999976 L137.001000000000005 1455.000999999999976 L137.001000000000005 1305.000999999999976 L873.000999999999976 1305.000999999999976 L873.000999999999976 1455.000999999999976" style="stroke:#58606A;stroke-width:1;fill:#262E38" code="ALU 1VTL" sash_id="1" data-sash_id="1" leaf_id="1" data-leaf_id="1" origin="S" data-set_id="0" data-set_part_id="0"/>
<path d="M872.000999999999863 1458.000999999999976 L872.000999999999863 104.000999999999976 L975.00100000000009 104.000999999999976 L975.00100000000009 1458.000999999999976 L872.000999999999863 1458.000999999999976" style="stroke:#58606A;stroke-width:1;fill:#262E38" code="ALU 1VTL" sash_id="1" data-sash_id="1" leaf_id="1" data-leaf_id="1" origin="S" data-set_id="0" data-set_part_id="0"/>
<path d="M48.000999999999962 1458.000999999999976 L48.000999999999962 104.000999999999976 L138.001000000000033 104.000999999999976 L138.001000000000033 1458.000999999999976 L48.000999999999962 1458.000999999999976" style="stroke:#58606A;stroke-width:1;fill:#262E38" code="ALU 1VTL" sash_id="1" data-sash_id="1" leaf_id="1" data-leaf_id="1" origin="S" data-set_id="0" data-set_part_id="0"/>
<path d="M122.001000000000005 1148.901000000000067 L888.000999999999976 1148.901000000000067 L888.000999999999976 1320.000999999999976 L122.001000000000005 1320.000999999999976 L122.001000000000005 1148.901000000000067" style="stroke:#58606A;stroke-width:1;fill:#2C343E" code="ALU PORTAIL" sash_id="1" data-sash_id="1" leaf_id="1" data-leaf_id="1" data-fillingTotal_id="1" origin="p" data-set_id="0" data-set_part_id="0"/>
<path d="M888.000999999999976 1153.601000000000113 L122.001000000000005 1153.601000000000113 L122.001000000000005 1129.201000000000022 L888.000999999999976 1129.201000000000022 L888.000999999999976 1153.601000000000113" style="stroke:#AFA287;stroke-width:1;fill:#FAEDD2" code="ALU PORTAIL" sash_id="1" data-sash_id="1" leaf_id="1" data-leaf_id="1" data-fillingTotal_id="1" origin="p" data-set_id="0" data-set_part_id="0"/>
<path d="M888.000999999999976 1133.901000000000067 L122.001000000000005 1133.901000000000067 L122.001000000000005 889.401000000000067 L888.000999999999976 889.401000000000067 L888.000999999999976 1133.901000000000067" style="stroke:#58606A;stroke-width:1;fill:#2C343E" code="ALU PORTAIL" sash_id="1" data-sash_id="1" leaf_id="1" data-leaf_id="1" data-fillingTotal_id="1" origin="p" data-set_id="0" data-set_part_id="0"/>
<path d="M888.000999999999976 894.101000000000113 L122.001000000000005 894.101000000000113 L122.001000000000005 869.701000000000022 L888.000999999999976 869.701000000000022 L888.000999999999976 894.101000000000113" style="stroke:#AFA287;stroke-width:1;fill:#FAEDD2" code="ALU PORTAIL" sash_id="1" data-sash_id="1" leaf_id="1" data-leaf_id="1" data-fillingTotal_id="1" origin="p" data-set_id="0" data-set_part_id="0"/>
<path d="M888.000999999999976 874.401000000000067 L122.001000000000005 874.401000000000067 L122.001000000000005 629.901000000000067 L888.000999999999976 629.901000000000067 L888.000999999999976 874.401000000000067" style="stroke:#58606A;stroke-width:1;fill:#2C343E" code="ALU PORTAIL" sash_id="1" data-sash_id="1" leaf_id="1" data-leaf_id="1" data-fillingTotal_id="1" origin="p" data-set_id="0" data-set_part_id="0"/>
<path d="M888.000999999999976 634.601000000000113 L122.001000000000005 634.601000000000113 L122.001000000000005 610.201000000000022 L888.000999999999976 610.201000000000022 L888.000999999999976 634.601000000000113" style="stroke:#AFA287;stroke-width:1;fill:#FAEDD2" code="ALU PORTAIL" sash_id="1" data-sash_id="1" leaf_id="1" data-leaf_id="1" data-fillingTotal_id="1" origin="p" data-set_id="0" data-set_part_id="0"/>
<path d="M888.000999999999976 614.901000000000067 L122.001000000000005 614.901000000000067 L122.001000000000005 370.401000000000067 L888.000999999999976 370.401000000000067 L888.000999999999976 614.901000000000067" style="stroke:#58606A;stroke-width:1;fill:#2C343E" code="ALU PORTAIL" sash_id="1" data-sash_id="1" leaf_id="1" data-leaf_id="1" data-fillingTotal_id="1" origin="p" data-set_id="0" data-set_part_id="0"/>
<path d="M888.000999999999976 375.101000000000113 L122.001000000000005 375.101000000000113 L122.001000000000005 350.701000000000022 L888.000999999999976 350.701000000000022 L888.000999999999976 375.101000000000113" style="stroke:#AFA287;stroke-width:1;fill:#FAEDD2" code="ALU PORTAIL" sash_id="1" data-sash_id="1" leaf_id="1" data-leaf_id="1" data-fillingTotal_id="1" origin="p" data-set_id="0" data-set_part_id="0"/>
<path d="M888.000999999999976 355.401000000000067 L122.001000000000005 355.401000000000067 L122.001000000000005 189.000999999999976 L888.000999999999976 189.000999999999976 L888.000999999999976 355.401000000000067" style="stroke:#58606A;stroke-width:1;fill:#2C343E" code="ALU PORTAIL" sash_id="1" data-sash_id="1" leaf_id="1" data-leaf_id="1" data-fillingTotal_id="1" origin="p" data-set_id="0" data-set_part_id="0"/>
<path d="M122.001000000000005 1320.000999999999976 L122.001000000000005 189.000999999999976 L888.000999999999976 189.000999999999976 L888.000999999999976 1320.000999999999976 L122.001000000000005 1320.000999999999976" style="stroke:#000000;stroke-width:1" fill-opacity="0" fill="none" code="ALU PORTAIL" sash_id="1" data-sash_id="1" leaf_id="1" data-leaf_id="1" filling_id="1" data-filling_id="1" data-fillingTotal_id="1" origin="p" data-set_id="0" data-set_part_id="0"/>
<path d="M137.001000000000005 1455.000999999999976 L137.001000000000005 1377.500999999999976 L873.000999999999976 1377.500999999999976 L873.000999999999976 1455.000999999999976 L137.001000000000005 1455.000999999999976" style="stroke:#58606A;stroke-width:1;fill:#262E38" code="ALU 1VTL" sash_id="1" data-sash_id="1" leaf_id="1" data-leaf_id="1" origin="S" data-set_id="0" data-set_part_id="0"/>
<path d="M48.000999999999962 1458.000999999999976 L48.000999999999962 104.000999999999976 L65.501000000000033 104.000999999999976 L65.501000000000033 1458.000999999999976 L48.000999999999962 1458.000999999999976" style="stroke:#58606A;stroke-width:1;fill:#262E38" code="ALU 1VTL" sash_id="1" data-sash_id="1" leaf_id="1" data-leaf_id="1" origin="S" data-set_id="0" data-set_part_id="0"/>
<path d="M956.500999999999863 1457.000999999999976 L956.500999999999863 105.000999999999976 L975.00100000000009 105.000999999999976 L975.00100000000009 1457.000999999999976 L956.500999999999863 1457.000999999999976" style="stroke:#58606A;stroke-width:1;fill:#262E38" code="ALU 1VTL" sash_id="1" data-sash_id="1" leaf_id="1" data-leaf_id="1" origin="S" data-set_id="0" data-set_part_id="0"/>
<path d="M873.000999999999863 116.000999999999976 L873.000999999999863 104.000999999999976 L890.500999999999863 104.000999999999976 L890.500999999999863 116.000999999999976 L873.000999999999863 116.000999999999976" style="stroke:#58606A;stroke-width:1;fill:#262E38" code="ALU 1VTL" sash_id="1" data-sash_id="1" leaf_id="1" data-leaf_id="1" origin="S" data-set_id="0" data-set_part_id="0"/>
<path d="M119.501000000000033 116.000999999999976 L119.501000000000033 104.000999999999976 L137.001000000000033 104.000999999999976 L137.001000000000033 116.000999999999976 L119.501000000000033 116.000999999999976" style="stroke:#58606A;stroke-width:1;fill:#262E38" code="ALU 1VTL" sash_id="1" data-sash_id="1" leaf_id="1" data-leaf_id="1" origin="S" data-set_id="0" data-set_part_id="0"/>
<path d="M137.001000000000005 204.000999999999976 L137.001000000000005 114.000999999999976 L873.000999999999976 114.000999999999976 L873.000999999999976 204.000999999999976 L137.001000000000005 204.000999999999976" style="stroke:#58606A;stroke-width:1;fill:#262E38" code="ALU 1VTL" sash_id="1" data-sash_id="1" leaf_id="1" data-leaf_id="1" origin="S" data-set_id="0" data-set_part_id="0"/>
<path d="M873.000999999999976 1455.000999999999976 L137.001000000000005 1455.000999999999976 L137.001000000000005 1305.000999999999976 L873.000999999999976 1305.000999999999976 L873.000999999999976 1455.000999999999976" style="stroke:#58606A;stroke-width:1;fill:#262E38" code="ALU 1VTL" sash_id="1" data-sash_id="1" leaf_id="1" data-leaf_id="1" origin="S" data-set_id="0" data-set_part_id="0"/>
<g code="ALU 1VTL">
<rect x="-1.499000000000038" y="100.000999999999976" width="36" height="4" stroke="#171F29" stroke-width="0.1%" fill="#171F29" fill-opacity="1" stroke-opacity="1" sash_id="1" data-sash_id="1" leaf_id="1" origin="S" data-set_id="0" data-set_part_id="0"/>
<rect x="-1.499000000000038" y="100.000999999999976" width="36" height="4" stroke="#171F29" stroke-width="0.1%" fill="#171F29" fill-opacity="1" stroke-opacity="1" sash_id="1" data-sash_id="1" leaf_id="1" origin="S" data-set_id="0" data-set_part_id="0"/>
<data-no-click>true</data-no-click>
</g>
<path d="M0.000999999999962 1500.000999999999976 L0.000999999999962 104.000999999999976 L32.001000000000033 104.000999999999976 L32.001000000000033 1500.000999999999976 L0.000999999999962 1500.000999999999976" style="stroke:#58606A;stroke-width:1;fill:#262E38" code="ALU 1VTL" sash_id="1" data-sash_id="1" leaf_id="1" data-leaf_id="1" origin="S" data-set_id="0" data-set_part_id="0"/>
<path d="M872.000999999999863 1458.000999999999976 L872.000999999999863 104.000999999999976 L975.00100000000009 104.000999999999976 L975.00100000000009 1458.000999999999976 L872.000999999999863 1458.000999999999976" style="stroke:#58606A;stroke-width:1;fill:#262E38" code="ALU 1VTL" sash_id="1" data-sash_id="1" leaf_id="1" data-leaf_id="1" origin="S" data-set_id="0" data-set_part_id="0"/>
<g code="ALU 1VTL">
<path d="M975.00100000000009 1486.000999999999976 A6 6 0  0,0 969.00100000000009 1480.000999999999976" stroke="#000000" stroke-width="0.2%" fill="none" fill-opacity="0" stroke-opacity="1"/>
<path d="M921.00100000000009 1480.000999999999976 A6 6 0  0,0 915.00100000000009 1486.000999999999976" stroke="#000000" stroke-width="0.2%" fill="none" fill-opacity="0" stroke-opacity="1"/>
<path d="M1000.00100000000009 1462.000999999999976 L921.00100000000009 1480.000999999999976 L915.00100000000009 1500.000999999999976 L975.00100000000009 1500.000999999999976 L975.00100000000009 1486.000999999999976 L1000.00100000000009 1462.000999999999976" stroke="#000000" stroke-width="0.2%" fill="#808080" fill-opacity="1" stroke-opacity="1" sash_id="1" data-sash_id="1" leaf_id="1" origin="S" data-set_id="0" data-set_part_id="0"/>
<rect x="935.00100000000009" y="1480.000999999999976" width="20" height="-18" stroke="#000000" stroke-width="0.2%" fill="#808080" fill-opacity="1" stroke-opacity="1" sash_id="1" data-sash_id="1" leaf_id="1" origin="S" data-set_id="0" data-set_part_id="0"/>
<path d="M975.00100000000009 1486.000999999999976 A6 6 0  0,0 969.00100000000009 1480.000999999999976" stroke="#000000" stroke-width="0.2%" fill="none" fill-opacity="0" stroke-opacity="1"/>
<path d="M921.00100000000009 1480.000999999999976 A6 6 0  0,0 915.00100000000009 1486.000999999999976" stroke="#000000" stroke-width="0.2%" fill="none" fill-opacity="0" stroke-opacity="1"/>
<path d="M975.00100000000009 1486.000999999999976 L921.00100000000009 1480.000999999999976 L915.00100000000009 1500.000999999999976 L975.00100000000009 1500.000999999999976 L975.00100000000009 1486.000999999999976 L975.00100000000009 1486.000999999999976" stroke="#000000" stroke-width="0.2%" fill="#808080" fill-opacity="1" stroke-opacity="1" sash_id="1" data-sash_id="1" leaf_id="1" origin="S" data-set_id="0" data-set_part_id="0"/>
<rect x="935.00100000000009" y="1480.000999999999976" width="20" height="-18" stroke="#000000" stroke-width="0.2%" fill="#808080" fill-opacity="1" stroke-opacity="1" sash_id="1" data-sash_id="1" leaf_id="1" origin="S" data-set_id="0" data-set_part_id="0"/>
<data-no-click>true</data-no-click>
</g>
<g code="ALU 1VTL">
<path d="M1000.00100000000009 60.000999999999976 A90 30 0  0,0 910.00100000000009 90.000999999999976" stroke="#000000" stroke-width="0.2%" fill="none" fill-opacity="0" stroke-opacity="1"/>
<path d="M1000.00100000000009 100.000999999999976 L910.00100000000009 100.000999999999976 L1000.00100000000009 100.000999999999976 L1000.00100000000009 100.000999999999976" stroke="#000000" stroke-width="0.2%" fill="#262E38" fill-opacity="1" stroke-opacity="1" sash_id="1" data-sash_id="1" leaf_id="1" origin="S" data-set_id="0" data-set_part_id="0"/>
<path d="M1000.00100000000009 60.000999999999976 A90 30 0  0,0 910.00100000000009 90.000999999999976" stroke="#000000" stroke-width="0.2%" fill="none" fill-opacity="0" stroke-opacity="1"/>
<path d="M1000.00100000000009 100.000999999999976 L910.00100000000009 100.000999999999976 L1000.00100000000009 100.000999999999976 L1000.00100000000009 100.000999999999976" stroke="#000000" stroke-width="0.2%" fill="#262E38" fill-opacity="1" stroke-opacity="1" sash_id="1" data-sash_id="1" leaf_id="1" origin="S" data-set_id="0" data-set_part_id="0"/>
<data-no-click>true</data-no-click>
</g>
<g code="ALU 1VTL">
<rect x="870.500999999999863" y="1458.000999999999976" width="107.000000000000227" height="4" stroke="#171F29" stroke-width="0.1%" fill="#171F29" fill-opacity="1" stroke-opacity="1" sash_id="1" data-sash_id="1" leaf_id="1" origin="S" data-set_id="0" data-set_part_id="0"/>
<rect x="870.500999999999863" y="1458.000999999999976" width="107.000000000000227" height="4" stroke="#171F29" stroke-width="0.1%" fill="#171F29" fill-opacity="1" stroke-opacity="1" sash_id="1" data-sash_id="1" leaf_id="1" origin="S" data-set_id="0" data-set_part_id="0"/>
<data-no-click>true</data-no-click>
</g>
<g code="ALU 1VTL">
<rect x="870.500999999999863" y="100.000999999999976" width="107.000000000000227" height="4" stroke="#171F29" stroke-width="0.1%" fill="#171F29" fill-opacity="1" stroke-opacity="1" sash_id="1" data-sash_id="1" leaf_id="1" origin="S" data-set_id="0" data-set_part_id="0"/>
<rect x="870.500999999999863" y="100.000999999999976" width="107.000000000000227" height="4" stroke="#171F29" stroke-width="0.1%" fill="#171F29" fill-opacity="1" stroke-opacity="1" sash_id="1" data-sash_id="1" leaf_id="1" origin="S" data-set_id="0" data-set_part_id="0"/>
<data-no-click>true</data-no-click>
</g>
<path d="M48.000999999999962 1458.000999999999976 L48.000999999999962 104.000999999999976 L138.001000000000033 104.000999999999976 L138.001000000000033 1458.000999999999976 L48.000999999999962 1458.000999999999976" style="stroke:#58606A;stroke-width:1;fill:#262E38" code="ALU 1VTL" sash_id="1" data-sash_id="1" leaf_id="1" data-leaf_id="1" origin="S" data-set_id="0" data-set_part_id="0"/>
<g code="ALU 1VTL">
<rect x="46.500999999999962" y="1458.000999999999976" width="94.000000000000071" height="4" stroke="#171F29" stroke-width="0.1%" fill="#171F29" fill-opacity="1" stroke-opacity="1" sash_id="1" data-sash_id="1" leaf_id="1" origin="S" data-set_id="0" data-set_part_id="0"/>
<rect x="46.500999999999962" y="1458.000999999999976" width="94.000000000000071" height="4" stroke="#171F29" stroke-width="0.1%" fill="#171F29" fill-opacity="1" stroke-opacity="1" sash_id="1" data-sash_id="1" leaf_id="1" origin="S" data-set_id="0" data-set_part_id="0"/>
<data-no-click>true</data-no-click>
</g>
<g code="ALU 1VTL">
<rect x="46.500999999999962" y="100.000999999999976" width="94.000000000000071" height="4" stroke="#171F29" stroke-width="0.1%" fill="#171F29" fill-opacity="1" stroke-opacity="1" sash_id="1" data-sash_id="1" leaf_id="1" origin="S" data-set_id="0" data-set_part_id="0"/>
<rect x="46.500999999999962" y="100.000999999999976" width="94.000000000000071" height="4" stroke="#171F29" stroke-width="0.1%" fill="#171F29" fill-opacity="1" stroke-opacity="1" sash_id="1" data-sash_id="1" leaf_id="1" origin="S" data-set_id="0" data-set_part_id="0"/>
<data-no-click>true</data-no-click>
</g>
<path d="M15.500999999999962 1500.000999999999976 L15.500999999999962 109.000999999999976 L66.501000000000033 109.000999999999976 L66.501000000000033 1500.000999999999976 L15.500999999999962 1500.000999999999976" style="stroke:#58606A;stroke-width:1;fill:#262E38" code="ALU 1VTL" sash_id="1" data-sash_id="1" leaf_id="1" data-leaf_id="1" origin="S" data-set_id="0" data-set_part_id="0"/>
<g code="ALU 1VTL">
<rect x="1000.00100000000009" y="104.000999999999976" width="-25" height="1354" stroke="#323232" stroke-width="0.1%" fill="#A6ABB5" fill-opacity="1" stroke-opacity="1" sash_id="1" data-sash_id="1" leaf_id="1" origin="S" data-set_id="0" data-set_part_id="0"/>
<rect x="1000.00100000000009" y="104.000999999999976" width="-25" height="1354" stroke="#323232" stroke-width="0.1%" fill="#A6ABB5" fill-opacity="1" stroke-opacity="1" sash_id="1" data-sash_id="1" leaf_id="1" origin="S" data-set_id="0" data-set_part_id="0"/>
<data-no-click>true</data-no-click>
</g>
<path d="M1000.001999999999953 1500.001999999999953 L1000.001999999999953 0 L1400.001999999999953 0 L1400.001999999999953 1500.001999999999953 L1000.001999999999953 1500.001999999999953" style="stroke:#000000;stroke-width:1" fill-opacity="0" fill="none" code="ALU PORTAIL" leaf_id="0" data-leaf_id="0" origin="F" data-set_id="0" data-set_part_id="0"/>
<path d="M-400 1500.001999999999953 L-400 0 L0 0 L0 1500.001999999999953 L-400 1500.001999999999953" style="stroke:#000000;stroke-width:1" fill-opacity="0" fill="none" code="ALU PORTAIL" leaf_id="0" data-leaf_id="0" origin="F" data-set_id="0" data-set_part_id="0"/>
<path d="M0 1500.001999999999953 L0 100 L1000.001999999999953 100 L1000.001999999999953 1500.001999999999953 L0 1500.001999999999953" style="stroke:#000000;stroke-width:1" fill-opacity="0" fill="none" code="" leaf_id="0" data-leaf_id="0" origin="F" data-set_id="0" data-set_part_id="0"/>
<path d="M0.001 1500.000999999999976 L0.001 100.000999999999976 L1000.000999999999976 100.000999999999976 L1000.000999999999976 1500.000999999999976 L0.001 1500.000999999999976" style="stroke:#000000;stroke-width:1" fill-opacity="0" fill="none" stroke-dasharray="8" code="" leaf_id="0" data-leaf_id="0" origin="?" data-set_id="0" data-set_part_id="0"/>
<g code="ALU 2VTX">
<rect x="80.001000000000005" y="403.000999999999976" rx="10" ry="10" width="120" height="20" stroke="#000000" stroke-width="0.1%" fill="#C8C8C8" fill-opacity="1" stroke-opacity="1" sash_id="1" data-sash_id="1" leaf_id="1" origin="S" data-set_id="0" data-set_part_id="0"/>
<rect x="85.001000000000005" y="483.000999999999976" rx="10" ry="10" width="10" height="25" stroke="#000000" stroke-width="0.1%" fill="#C8C8C8" fill-opacity="1" stroke-opacity="1" sash_id="1" data-sash_id="1" leaf_id="1" origin="S" data-set_id="0" data-set_part_id="0"/>
<circle cx="90.001000000000005" cy="483.000999999999976" r="9" stroke="#000000" stroke-width="0.1%" fill="#C8C8C8" fill-opacity="1" stroke-opacity="1" sash_id="1" data-sash_id="1" leaf_id="1" origin="S" data-set_id="0" data-set_part_id="0"/>
<data-no-click>true</data-no-click>
</g>
</g>
<g/>
</svg>