<svg version="1.1" baseProfile="full" xmlns="http://www.w3.org/2000/svg" xmlns:xlink="http://www.w3.org/1999/xlink" viewbox="-400 -0 4841.001000000000204 1700.001999999999953" winpro-url="http://www.winpro.be" winpro-info="software for windows and doors manufacturer" winpro-version="WinPro 10.6.0.5130" viewBox="-49.999 0 4701.001 1700.002">
<defs>
<marker id="markerArrow1" markerWidth="13" markerHeight="13" refx="9" refy="6" orient="auto">
<path d="M2,2 L2,10 L10,6 Z" fill="#000000"/>
</marker>
<marker id="markerArrow2" markerWidth="13" markerHeight="13" refx="2" refy="6" orient="auto">
<path d="M10,2 L10,10 L2,6 Z" fill="#000000"/>
</marker>
</defs>
<g>
<path d="M-19.999000000000002 115.000999999999976 L4418.001000000000204 115.000999999999976 L4418.001000000000204 175.000999999999976 L-19.999000000000002 175.000999999999976 L-19.999000000000002 115.000999999999976" style="stroke:#58606A;stroke-width:1;fill:#262E38" code="ALU COUL" sash_id="1" data-sash_id="1" leaf_id="1" data-leaf_id="1" origin="t" data-set_id="0" data-set_part_id="0"/>
<path d="M1955.500000000000227 1513.000999999999976 L1955.500000000000227 189.000999999999976 L2045.500000000000227 189.000999999999976 L2045.500000000000227 1513.000999999999976 L1955.500000000000227 1513.000999999999976" style="stroke:#58606A;stroke-width:1;fill:#262E38" code="ALU PORTAIL" transom_id="1" data-transom_id="1" data-transomInLeaf_id="-1" sash_id="1" data-sash_id="1" leaf_id="1" data-leaf_id="1" origin="t" data-set_id="0" data-set_part_id="0"/>
<path d="M50.000999999999998 1019.402199999999993 L50.000999999999998 929.402199999999993 L1970.500000000000227 929.402199999999993 L1970.500000000000227 1019.402199999999993 L50.000999999999998 1019.402199999999993" style="stroke:#58606A;stroke-width:1;fill:#262E38" code="ALU PORTAIL" transom_id="2" data-transom_id="2" data-transomInLeaf_id="-1" sash_id="1" data-sash_id="1" leaf_id="1" data-leaf_id="1" origin="t" data-set_id="0" data-set_part_id="0"/>
<path d="M2030.500000000000227 1019.402199999999993 L2030.500000000000227 929.402199999999993 L3951.001000000000204 929.402199999999993 L3951.001000000000204 1019.402199999999993 L2030.500000000000227 1019.402199999999993" style="stroke:#58606A;stroke-width:1;fill:#262E38" code="ALU PORTAIL" transom_id="3" data-transom_id="3" data-transomInLeaf_id="-1" sash_id="1" data-sash_id="1" leaf_id="1" data-leaf_id="1" origin="t" data-set_id="0" data-set_part_id="0"/>
<path d="M4041.001000000000204 189.000999999999976 L4041.001000000000204 1513.000999999999976 L3951.001000000000204 1513.000999999999976 L3951.001000000000204 189.000999999999976 L4041.001000000000204 189.000999999999976" style="stroke:#58606A;stroke-width:1;fill:#262E38" code="ALU COUL" sash_id="1" data-sash_id="1" leaf_id="1" data-leaf_id="1" origin="S" data-set_id="0" data-set_part_id="0"/>
<path d="M-39.999000000000002 1513.000999999999976 L-39.999000000000002 189.000999999999976 L50.000999999999998 189.000999999999976 L50.000999999999998 1513.000999999999976 L-39.999000000000002 1513.000999999999976" style="stroke:#58606A;stroke-width:1;fill:#262E38" code="ALU COUL" sash_id="1" data-sash_id="1" leaf_id="1" data-leaf_id="1" origin="S" data-set_id="0" data-set_part_id="0"/>
<path d="M4441.001000000000204 1663.000999999999976 L-42.999000000000002 1663.000999999999976 L-42.999000000000002 1513.000999999999976 L4441.001000000000204 1513.000999999999976 L4441.001000000000204 1663.000999999999976" style="stroke:#58606A;stroke-width:1;fill:#262E38" code="ALU COUL" sash_id="1" data-sash_id="1" leaf_id="1" data-leaf_id="1" origin="S" data-set_id="0" data-set_part_id="0"/>
<path d="M-42.999000000000002 190.000999999999976 L-42.999000000000002 100.000999999999976 L4441.001000000000204 100.000999999999976 L4441.001000000000204 190.000999999999976 L-42.999000000000002 190.000999999999976" style="stroke:#58606A;stroke-width:1;fill:#262E38" code="ALU COUL" sash_id="1" data-sash_id="1" leaf_id="1" data-leaf_id="1" origin="S" data-set_id="0" data-set_part_id="0"/>
<path d="M171.899999999985312 174.000999999999976 L171.899999999985312 944.402199999999993 L36.000999999999998 944.402199999999993 L36.000999999999998 174.000999999999976 L171.899999999985312 174.000999999999976" style="stroke:#58606A;stroke-width:1;fill:#2C343E" code="ALU PORTAIL" sash_id="1" data-sash_id="1" leaf_id="1" data-leaf_id="1" data-fillingTotal_id="2" origin="p" data-set_id="0" data-set_part_id="0"/>
<path d="M171.899999999985312 1004.402199999999993 L171.899999999985312 1528.000999999999976 L36.000999999999998 1528.000999999999976 L36.000999999999998 1004.402199999999993 L171.899999999985312 1004.402199999999993" style="stroke:#58606A;stroke-width:1;fill:#2C343E" code="ALU PORTAIL" sash_id="1" data-sash_id="1" leaf_id="1" data-leaf_id="1" data-fillingTotal_id="1" origin="p" data-set_id="0" data-set_part_id="0"/>
<path d="M321.699999999985323 174.000999999999976 L321.699999999985323 944.402199999999993 L167.199999999985323 944.402199999999993 L167.199999999985323 174.000999999999976 L321.699999999985323 174.000999999999976" style="stroke:#58606A;stroke-width:1;fill:#2C343E" code="ALU PORTAIL" sash_id="1" data-sash_id="1" leaf_id="1" data-leaf_id="1" data-fillingTotal_id="2" origin="p" data-set_id="0" data-set_part_id="0"/>
<path d="M321.699999999985323 1004.402199999999993 L321.699999999985323 1528.000999999999976 L167.199999999985323 1528.000999999999976 L167.199999999985323 1004.402199999999993 L321.699999999985323 1004.402199999999993" style="stroke:#58606A;stroke-width:1;fill:#2C343E" code="ALU PORTAIL" sash_id="1" data-sash_id="1" leaf_id="1" data-leaf_id="1" data-fillingTotal_id="1" origin="p" data-set_id="0" data-set_part_id="0"/>
<path d="M471.499999999985334 174.000999999999976 L471.499999999985334 944.402199999999993 L316.999999999985334 944.402199999999993 L316.999999999985334 174.000999999999976 L471.499999999985334 174.000999999999976" style="stroke:#58606A;stroke-width:1;fill:#2C343E" code="ALU PORTAIL" sash_id="1" data-sash_id="1" leaf_id="1" data-leaf_id="1" data-fillingTotal_id="2" origin="p" data-set_id="0" data-set_part_id="0"/>
<path d="M471.499999999985334 1004.402199999999993 L471.499999999985334 1528.000999999999976 L316.999999999985334 1528.000999999999976 L316.999999999985334 1004.402199999999993 L471.499999999985334 1004.402199999999993" style="stroke:#58606A;stroke-width:1;fill:#2C343E" code="ALU PORTAIL" sash_id="1" data-sash_id="1" leaf_id="1" data-leaf_id="1" data-fillingTotal_id="1" origin="p" data-set_id="0" data-set_part_id="0"/>
<path d="M621.299999999985403 174.000999999999976 L621.299999999985403 944.402199999999993 L466.799999999985346 944.402199999999993 L466.799999999985346 174.000999999999976 L621.299999999985403 174.000999999999976" style="stroke:#58606A;stroke-width:1;fill:#2C343E" code="ALU PORTAIL" sash_id="1" data-sash_id="1" leaf_id="1" data-leaf_id="1" data-fillingTotal_id="2" origin="p" data-set_id="0" data-set_part_id="0"/>
<path d="M621.299999999985403 1004.402199999999993 L621.299999999985403 1528.000999999999976 L466.799999999985346 1528.000999999999976 L466.799999999985346 1004.402199999999993 L621.299999999985403 1004.402199999999993" style="stroke:#58606A;stroke-width:1;fill:#2C343E" code="ALU PORTAIL" sash_id="1" data-sash_id="1" leaf_id="1" data-leaf_id="1" data-fillingTotal_id="1" origin="p" data-set_id="0" data-set_part_id="0"/>
<path d="M771.099999999985357 174.000999999999976 L771.099999999985357 944.402199999999993 L616.599999999985357 944.402199999999993 L616.599999999985357 174.000999999999976 L771.099999999985357 174.000999999999976" style="stroke:#58606A;stroke-width:1;fill:#2C343E" code="ALU PORTAIL" sash_id="1" data-sash_id="1" leaf_id="1" data-leaf_id="1" data-fillingTotal_id="2" origin="p" data-set_id="0" data-set_part_id="0"/>
<path d="M771.099999999985357 1004.402199999999993 L771.099999999985357 1528.000999999999976 L616.599999999985357 1528.000999999999976 L616.599999999985357 1004.402199999999993 L771.099999999985357 1004.402199999999993" style="stroke:#58606A;stroke-width:1;fill:#2C343E" code="ALU PORTAIL" sash_id="1" data-sash_id="1" leaf_id="1" data-leaf_id="1" data-fillingTotal_id="1" origin="p" data-set_id="0" data-set_part_id="0"/>
<path d="M920.899999999985312 174.000999999999976 L920.899999999985312 944.402199999999993 L766.399999999985312 944.402199999999993 L766.399999999985312 174.000999999999976 L920.899999999985312 174.000999999999976" style="stroke:#58606A;stroke-width:1;fill:#2C343E" code="ALU PORTAIL" sash_id="1" data-sash_id="1" leaf_id="1" data-leaf_id="1" data-fillingTotal_id="2" origin="p" data-set_id="0" data-set_part_id="0"/>
<path d="M920.899999999985312 1004.402199999999993 L920.899999999985312 1528.000999999999976 L766.399999999985312 1528.000999999999976 L766.399999999985312 1004.402199999999993 L920.899999999985312 1004.402199999999993" style="stroke:#58606A;stroke-width:1;fill:#2C343E" code="ALU PORTAIL" sash_id="1" data-sash_id="1" leaf_id="1" data-leaf_id="1" data-fillingTotal_id="1" origin="p" data-set_id="0" data-set_part_id="0"/>
<path d="M1070.699999999985266 174.000999999999976 L1070.699999999985266 944.402199999999993 L916.199999999985266 944.402199999999993 L916.199999999985266 174.000999999999976 L1070.699999999985266 174.000999999999976" style="stroke:#58606A;stroke-width:1;fill:#2C343E" code="ALU PORTAIL" sash_id="1" data-sash_id="1" leaf_id="1" data-leaf_id="1" data-fillingTotal_id="2" origin="p" data-set_id="0" data-set_part_id="0"/>
<path d="M1070.699999999985266 1004.402199999999993 L1070.699999999985266 1528.000999999999976 L916.199999999985266 1528.000999999999976 L916.199999999985266 1004.402199999999993 L1070.699999999985266 1004.402199999999993" style="stroke:#58606A;stroke-width:1;fill:#2C343E" code="ALU PORTAIL" sash_id="1" data-sash_id="1" leaf_id="1" data-leaf_id="1" data-fillingTotal_id="1" origin="p" data-set_id="0" data-set_part_id="0"/>
<path d="M1220.499999999985221 174.000999999999976 L1220.499999999985221 944.402199999999993 L1065.999999999985221 944.402199999999993 L1065.999999999985221 174.000999999999976 L1220.499999999985221 174.000999999999976" style="stroke:#58606A;stroke-width:1;fill:#2C343E" code="ALU PORTAIL" sash_id="1" data-sash_id="1" leaf_id="1" data-leaf_id="1" data-fillingTotal_id="2" origin="p" data-set_id="0" data-set_part_id="0"/>
<path d="M1220.499999999985221 1004.402199999999993 L1220.499999999985221 1528.000999999999976 L1065.999999999985221 1528.000999999999976 L1065.999999999985221 1004.402199999999993 L1220.499999999985221 1004.402199999999993" style="stroke:#58606A;stroke-width:1;fill:#2C343E" code="ALU PORTAIL" sash_id="1" data-sash_id="1" leaf_id="1" data-leaf_id="1" data-fillingTotal_id="1" origin="p" data-set_id="0" data-set_part_id="0"/>
<path d="M1370.299999999985175 174.000999999999976 L1370.299999999985175 944.402199999999993 L1215.799999999985175 944.402199999999993 L1215.799999999985175 174.000999999999976 L1370.299999999985175 174.000999999999976" style="stroke:#58606A;stroke-width:1;fill:#2C343E" code="ALU PORTAIL" sash_id="1" data-sash_id="1" leaf_id="1" data-leaf_id="1" data-fillingTotal_id="2" origin="p" data-set_id="0" data-set_part_id="0"/>
<path d="M1370.299999999985175 1004.402199999999993 L1370.299999999985175 1528.000999999999976 L1215.799999999985175 1528.000999999999976 L1215.799999999985175 1004.402199999999993 L1370.299999999985175 1004.402199999999993" style="stroke:#58606A;stroke-width:1;fill:#2C343E" code="ALU PORTAIL" sash_id="1" data-sash_id="1" leaf_id="1" data-leaf_id="1" data-fillingTotal_id="1" origin="p" data-set_id="0" data-set_part_id="0"/>
<path d="M1520.09999999998513 174.000999999999976 L1520.09999999998513 944.402199999999993 L1365.59999999998513 944.402199999999993 L1365.59999999998513 174.000999999999976 L1520.09999999998513 174.000999999999976" style="stroke:#58606A;stroke-width:1;fill:#2C343E" code="ALU PORTAIL" sash_id="1" data-sash_id="1" leaf_id="1" data-leaf_id="1" data-fillingTotal_id="2" origin="p" data-set_id="0" data-set_part_id="0"/>
<path d="M1520.09999999998513 1004.402199999999993 L1520.09999999998513 1528.000999999999976 L1365.59999999998513 1528.000999999999976 L1365.59999999998513 1004.402199999999993 L1520.09999999998513 1004.402199999999993" style="stroke:#58606A;stroke-width:1;fill:#2C343E" code="ALU PORTAIL" sash_id="1" data-sash_id="1" leaf_id="1" data-leaf_id="1" data-fillingTotal_id="1" origin="p" data-set_id="0" data-set_part_id="0"/>
<path d="M1669.899999999985084 174.000999999999976 L1669.899999999985084 944.402199999999993 L1515.399999999985084 944.402199999999993 L1515.399999999985084 174.000999999999976 L1669.899999999985084 174.000999999999976" style="stroke:#58606A;stroke-width:1;fill:#2C343E" code="ALU PORTAIL" sash_id="1" data-sash_id="1" leaf_id="1" data-leaf_id="1" data-fillingTotal_id="2" origin="p" data-set_id="0" data-set_part_id="0"/>
<path d="M1669.899999999985084 1004.402199999999993 L1669.899999999985084 1528.000999999999976 L1515.399999999985084 1528.000999999999976 L1515.399999999985084 1004.402199999999993 L1669.899999999985084 1004.402199999999993" style="stroke:#58606A;stroke-width:1;fill:#2C343E" code="ALU PORTAIL" sash_id="1" data-sash_id="1" leaf_id="1" data-leaf_id="1" data-fillingTotal_id="1" origin="p" data-set_id="0" data-set_part_id="0"/>
<path d="M1819.699999999985039 174.000999999999976 L1819.699999999985039 944.402199999999993 L1665.199999999985039 944.402199999999993 L1665.199999999985039 174.000999999999976 L1819.699999999985039 174.000999999999976" style="stroke:#58606A;stroke-width:1;fill:#2C343E" code="ALU PORTAIL" sash_id="1" data-sash_id="1" leaf_id="1" data-leaf_id="1" data-fillingTotal_id="2" origin="p" data-set_id="0" data-set_part_id="0"/>
<path d="M1819.699999999985039 1004.402199999999993 L1819.699999999985039 1528.000999999999976 L1665.199999999985039 1528.000999999999976 L1665.199999999985039 1004.402199999999993 L1819.699999999985039 1004.402199999999993" style="stroke:#58606A;stroke-width:1;fill:#2C343E" code="ALU PORTAIL" sash_id="1" data-sash_id="1" leaf_id="1" data-leaf_id="1" data-fillingTotal_id="1" origin="p" data-set_id="0" data-set_part_id="0"/>
<path d="M1969.499999999984993 174.000999999999976 L1969.499999999984993 944.402199999999993 L1814.999999999984993 944.402199999999993 L1814.999999999984993 174.000999999999976 L1969.499999999984993 174.000999999999976" style="stroke:#58606A;stroke-width:1;fill:#2C343E" code="ALU PORTAIL" sash_id="1" data-sash_id="1" leaf_id="1" data-leaf_id="1" data-fillingTotal_id="2" origin="p" data-set_id="0" data-set_part_id="0"/>
<path d="M1969.499999999984993 1004.402199999999993 L1969.499999999984993 1528.000999999999976 L1814.999999999984993 1528.000999999999976 L1814.999999999984993 1004.402199999999993 L1969.499999999984993 1004.402199999999993" style="stroke:#58606A;stroke-width:1;fill:#2C343E" code="ALU PORTAIL" sash_id="1" data-sash_id="1" leaf_id="1" data-leaf_id="1" data-fillingTotal_id="1" origin="p" data-set_id="0" data-set_part_id="0"/>
<path d="M2030.500000000000227 944.402199999999993 L2030.500000000000227 174.000999999999976 L3966.001000000000204 174.000999999999976 L3966.001000000000204 944.402199999999993 L2030.500000000000227 944.402199999999993" style="stroke:#000000;stroke-width:1" fill-opacity="0" fill="none" code="ALU PORTAIL" sash_id="1" data-sash_id="1" leaf_id="1" data-leaf_id="1" filling_id="4" data-filling_id="4" data-fillingTotal_id="4" origin="p" data-set_id="0" data-set_part_id="0"/>
<path d="M2030.500000000000227 1528.000999999999976 L2030.500000000000227 1004.402199999999993 L3966.001000000000204 1004.402199999999993 L3966.001000000000204 1528.000999999999976 L2030.500000000000227 1528.000999999999976" style="stroke:#000000;stroke-width:1" fill-opacity="0" fill="none" code="ALU PORTAIL" sash_id="1" data-sash_id="1" leaf_id="1" data-leaf_id="1" filling_id="3" data-filling_id="3" data-fillingTotal_id="3" origin="p" data-set_id="0" data-set_part_id="0"/>
<path d="M35.000999999999998 944.402199999999993 L35.000999999999998 174.000999999999976 L1970.500000000000227 174.000999999999976 L1970.500000000000227 944.402199999999993 L35.000999999999998 944.402199999999993" style="stroke:#000000;stroke-width:1" fill-opacity="0" fill="none" code="ALU PORTAIL" sash_id="1" data-sash_id="1" leaf_id="1" data-leaf_id="1" filling_id="2" data-filling_id="2" data-fillingTotal_id="2" origin="p" data-set_id="0" data-set_part_id="0"/>
<path d="M35.000999999999998 1528.000999999999976 L35.000999999999998 1004.402199999999993 L1970.500000000000227 1004.402199999999993 L1970.500000000000227 1528.000999999999976 L35.000999999999998 1528.000999999999976" style="stroke:#000000;stroke-width:1" fill-opacity="0" fill="none" code="ALU PORTAIL" sash_id="1" data-sash_id="1" leaf_id="1" data-leaf_id="1" filling_id="1" data-filling_id="1" data-fillingTotal_id="1" origin="p" data-set_id="0" data-set_part_id="0"/>
<path d="M2185.999999999984539 174.000999999999976 L2185.999999999984539 944.402199999999993 L2031.500000000000227 944.402199999999993 L2031.500000000000227 174.000999999999976 L2185.999999999984539 174.000999999999976" style="stroke:#58606A;stroke-width:1;fill:#2C343E" code="ALU PORTAIL" sash_id="1" data-sash_id="1" leaf_id="1" data-leaf_id="1" data-fillingTotal_id="4" origin="p" data-set_id="0" data-set_part_id="0"/>
<path d="M2185.999999999984539 1004.402199999999993 L2185.999999999984539 1528.000999999999976 L2031.500000000000227 1528.000999999999976 L2031.500000000000227 1004.402199999999993 L2185.999999999984539 1004.402199999999993" style="stroke:#58606A;stroke-width:1;fill:#2C343E" code="ALU PORTAIL" sash_id="1" data-sash_id="1" leaf_id="1" data-leaf_id="1" data-fillingTotal_id="3" origin="p" data-set_id="0" data-set_part_id="0"/>
<path d="M2335.79999999998472 174.000999999999976 L2335.79999999998472 944.402199999999993 L2181.29999999998472 944.402199999999993 L2181.29999999998472 174.000999999999976 L2335.79999999998472 174.000999999999976" style="stroke:#58606A;stroke-width:1;fill:#2C343E" code="ALU PORTAIL" sash_id="1" data-sash_id="1" leaf_id="1" data-leaf_id="1" data-fillingTotal_id="4" origin="p" data-set_id="0" data-set_part_id="0"/>
<path d="M2335.79999999998472 1004.402199999999993 L2335.79999999998472 1528.000999999999976 L2181.29999999998472 1528.000999999999976 L2181.29999999998472 1004.402199999999993 L2335.79999999998472 1004.402199999999993" style="stroke:#58606A;stroke-width:1;fill:#2C343E" code="ALU PORTAIL" sash_id="1" data-sash_id="1" leaf_id="1" data-leaf_id="1" data-fillingTotal_id="3" origin="p" data-set_id="0" data-set_part_id="0"/>
<path d="M2485.599999999984902 174.000999999999976 L2485.599999999984902 944.402199999999993 L2331.099999999984902 944.402199999999993 L2331.099999999984902 174.000999999999976 L2485.599999999984902 174.000999999999976" style="stroke:#58606A;stroke-width:1;fill:#2C343E" code="ALU PORTAIL" sash_id="1" data-sash_id="1" leaf_id="1" data-leaf_id="1" data-fillingTotal_id="4" origin="p" data-set_id="0" data-set_part_id="0"/>
<path d="M2485.599999999984902 1004.402199999999993 L2485.599999999984902 1528.000999999999976 L2331.099999999984902 1528.000999999999976 L2331.099999999984902 1004.402199999999993 L2485.599999999984902 1004.402199999999993" style="stroke:#58606A;stroke-width:1;fill:#2C343E" code="ALU PORTAIL" sash_id="1" data-sash_id="1" leaf_id="1" data-leaf_id="1" data-fillingTotal_id="3" origin="p" data-set_id="0" data-set_part_id="0"/>
<path d="M2635.399999999985084 174.000999999999976 L2635.399999999985084 944.402199999999993 L2480.899999999985084 944.402199999999993 L2480.899999999985084 174.000999999999976 L2635.399999999985084 174.000999999999976" style="stroke:#58606A;stroke-width:1;fill:#2C343E" code="ALU PORTAIL" sash_id="1" data-sash_id="1" leaf_id="1" data-leaf_id="1" data-fillingTotal_id="4" origin="p" data-set_id="0" data-set_part_id="0"/>
<path d="M2635.399999999985084 1004.402199999999993 L2635.399999999985084 1528.000999999999976 L2480.899999999985084 1528.000999999999976 L2480.899999999985084 1004.402199999999993 L2635.399999999985084 1004.402199999999993" style="stroke:#58606A;stroke-width:1;fill:#2C343E" code="ALU PORTAIL" sash_id="1" data-sash_id="1" leaf_id="1" data-leaf_id="1" data-fillingTotal_id="3" origin="p" data-set_id="0" data-set_part_id="0"/>
<path d="M2785.199999999985266 174.000999999999976 L2785.199999999985266 944.402199999999993 L2630.699999999985266 944.402199999999993 L2630.699999999985266 174.000999999999976 L2785.199999999985266 174.000999999999976" style="stroke:#58606A;stroke-width:1;fill:#2C343E" code="ALU PORTAIL" sash_id="1" data-sash_id="1" leaf_id="1" data-leaf_id="1" data-fillingTotal_id="4" origin="p" data-set_id="0" data-set_part_id="0"/>
<path d="M2785.199999999985266 1004.402199999999993 L2785.199999999985266 1528.000999999999976 L2630.699999999985266 1528.000999999999976 L2630.699999999985266 1004.402199999999993 L2785.199999999985266 1004.402199999999993" style="stroke:#58606A;stroke-width:1;fill:#2C343E" code="ALU PORTAIL" sash_id="1" data-sash_id="1" leaf_id="1" data-leaf_id="1" data-fillingTotal_id="3" origin="p" data-set_id="0" data-set_part_id="0"/>
<path d="M2934.999999999985448 174.000999999999976 L2934.999999999985448 944.402199999999993 L2780.499999999985448 944.402199999999993 L2780.499999999985448 174.000999999999976 L2934.999999999985448 174.000999999999976" style="stroke:#58606A;stroke-width:1;fill:#2C343E" code="ALU PORTAIL" sash_id="1" data-sash_id="1" leaf_id="1" data-leaf_id="1" data-fillingTotal_id="4" origin="p" data-set_id="0" data-set_part_id="0"/>
<path d="M2934.999999999985448 1004.402199999999993 L2934.999999999985448 1528.000999999999976 L2780.499999999985448 1528.000999999999976 L2780.499999999985448 1004.402199999999993 L2934.999999999985448 1004.402199999999993" style="stroke:#58606A;stroke-width:1;fill:#2C343E" code="ALU PORTAIL" sash_id="1" data-sash_id="1" leaf_id="1" data-leaf_id="1" data-fillingTotal_id="3" origin="p" data-set_id="0" data-set_part_id="0"/>
<path d="M3084.79999999998563 174.000999999999976 L3084.79999999998563 944.402199999999993 L2930.29999999998563 944.402199999999993 L2930.29999999998563 174.000999999999976 L3084.79999999998563 174.000999999999976" style="stroke:#58606A;stroke-width:1;fill:#2C343E" code="ALU PORTAIL" sash_id="1" data-sash_id="1" leaf_id="1" data-leaf_id="1" data-fillingTotal_id="4" origin="p" data-set_id="0" data-set_part_id="0"/>
<path d="M3084.79999999998563 1004.402199999999993 L3084.79999999998563 1528.000999999999976 L2930.29999999998563 1528.000999999999976 L2930.29999999998563 1004.402199999999993 L3084.79999999998563 1004.402199999999993" style="stroke:#58606A;stroke-width:1;fill:#2C343E" code="ALU PORTAIL" sash_id="1" data-sash_id="1" leaf_id="1" data-leaf_id="1" data-fillingTotal_id="3" origin="p" data-set_id="0" data-set_part_id="0"/>
<path d="M3234.599999999985812 174.000999999999976 L3234.599999999985812 944.402199999999993 L3080.099999999985812 944.402199999999993 L3080.099999999985812 174.000999999999976 L3234.599999999985812 174.000999999999976" style="stroke:#58606A;stroke-width:1;fill:#2C343E" code="ALU PORTAIL" sash_id="1" data-sash_id="1" leaf_id="1" data-leaf_id="1" data-fillingTotal_id="4" origin="p" data-set_id="0" data-set_part_id="0"/>
<path d="M3234.599999999985812 1004.402199999999993 L3234.599999999985812 1528.000999999999976 L3080.099999999985812 1528.000999999999976 L3080.099999999985812 1004.402199999999993 L3234.599999999985812 1004.402199999999993" style="stroke:#58606A;stroke-width:1;fill:#2C343E" code="ALU PORTAIL" sash_id="1" data-sash_id="1" leaf_id="1" data-leaf_id="1" data-fillingTotal_id="3" origin="p" data-set_id="0" data-set_part_id="0"/>
<path d="M3384.399999999985994 174.000999999999976 L3384.399999999985994 944.402199999999993 L3229.899999999985994 944.402199999999993 L3229.899999999985994 174.000999999999976 L3384.399999999985994 174.000999999999976" style="stroke:#58606A;stroke-width:1;fill:#2C343E" code="ALU PORTAIL" sash_id="1" data-sash_id="1" leaf_id="1" data-leaf_id="1" data-fillingTotal_id="4" origin="p" data-set_id="0" data-set_part_id="0"/>
<path d="M3384.399999999985994 1004.402199999999993 L3384.399999999985994 1528.000999999999976 L3229.899999999985994 1528.000999999999976 L3229.899999999985994 1004.402199999999993 L3384.399999999985994 1004.402199999999993" style="stroke:#58606A;stroke-width:1;fill:#2C343E" code="ALU PORTAIL" sash_id="1" data-sash_id="1" leaf_id="1" data-leaf_id="1" data-fillingTotal_id="3" origin="p" data-set_id="0" data-set_part_id="0"/>
<path d="M3534.199999999986176 174.000999999999976 L3534.199999999986176 944.402199999999993 L3379.699999999986176 944.402199999999993 L3379.699999999986176 174.000999999999976 L3534.199999999986176 174.000999999999976" style="stroke:#58606A;stroke-width:1;fill:#2C343E" code="ALU PORTAIL" sash_id="1" data-sash_id="1" leaf_id="1" data-leaf_id="1" data-fillingTotal_id="4" origin="p" data-set_id="0" data-set_part_id="0"/>
<path d="M3534.199999999986176 1004.402199999999993 L3534.199999999986176 1528.000999999999976 L3379.699999999986176 1528.000999999999976 L3379.699999999986176 1004.402199999999993 L3534.199999999986176 1004.402199999999993" style="stroke:#58606A;stroke-width:1;fill:#2C343E" code="ALU PORTAIL" sash_id="1" data-sash_id="1" leaf_id="1" data-leaf_id="1" data-fillingTotal_id="3" origin="p" data-set_id="0" data-set_part_id="0"/>
<path d="M3683.999999999986358 174.000999999999976 L3683.999999999986358 944.402199999999993 L3529.499999999986358 944.402199999999993 L3529.499999999986358 174.000999999999976 L3683.999999999986358 174.000999999999976" style="stroke:#58606A;stroke-width:1;fill:#2C343E" code="ALU PORTAIL" sash_id="1" data-sash_id="1" leaf_id="1" data-leaf_id="1" data-fillingTotal_id="4" origin="p" data-set_id="0" data-set_part_id="0"/>
<path d="M3683.999999999986358 1004.402199999999993 L3683.999999999986358 1528.000999999999976 L3529.499999999986358 1528.000999999999976 L3529.499999999986358 1004.402199999999993 L3683.999999999986358 1004.402199999999993" style="stroke:#58606A;stroke-width:1;fill:#2C343E" code="ALU PORTAIL" sash_id="1" data-sash_id="1" leaf_id="1" data-leaf_id="1" data-fillingTotal_id="3" origin="p" data-set_id="0" data-set_part_id="0"/>
<path d="M3833.79999999998654 174.000999999999976 L3833.79999999998654 944.402199999999993 L3679.29999999998654 944.402199999999993 L3679.29999999998654 174.000999999999976 L3833.79999999998654 174.000999999999976" style="stroke:#58606A;stroke-width:1;fill:#2C343E" code="ALU PORTAIL" sash_id="1" data-sash_id="1" leaf_id="1" data-leaf_id="1" data-fillingTotal_id="4" origin="p" data-set_id="0" data-set_part_id="0"/>
<path d="M3833.79999999998654 1004.402199999999993 L3833.79999999998654 1528.000999999999976 L3679.29999999998654 1528.000999999999976 L3679.29999999998654 1004.402199999999993 L3833.79999999998654 1004.402199999999993" style="stroke:#58606A;stroke-width:1;fill:#2C343E" code="ALU PORTAIL" sash_id="1" data-sash_id="1" leaf_id="1" data-leaf_id="1" data-fillingTotal_id="3" origin="p" data-set_id="0" data-set_part_id="0"/>
<path d="M3829.099999999986722 944.402199999999993 L3829.099999999986722 174.000999999999976 L3965.001000000000204 174.000999999999976 L3965.001000000000204 944.402199999999993 L3829.099999999986722 944.402199999999993" style="stroke:#58606A;stroke-width:1;fill:#2C343E" code="ALU PORTAIL" sash_id="1" data-sash_id="1" leaf_id="1" data-leaf_id="1" data-fillingTotal_id="4" origin="p" data-set_id="0" data-set_part_id="0"/>
<path d="M3829.099999999986722 1528.000999999999976 L3829.099999999986722 1004.402199999999993 L3965.001000000000204 1004.402199999999993 L3965.001000000000204 1528.000999999999976 L3829.099999999986722 1528.000999999999976" style="stroke:#58606A;stroke-width:1;fill:#2C343E" code="ALU PORTAIL" sash_id="1" data-sash_id="1" leaf_id="1" data-leaf_id="1" data-fillingTotal_id="3" origin="p" data-set_id="0" data-set_part_id="0"/>
<path d="M2030.500000000000227 1019.402199999999993 L2030.500000000000227 929.402199999999993 L3951.001000000000204 929.402199999999993 L3951.001000000000204 1019.402199999999993 L2030.500000000000227 1019.402199999999993" style="stroke:#58606A;stroke-width:1;fill:#262E38" code="ALU PORTAIL" transom_id="3" data-transom_id="3" data-transomInLeaf_id="-1" sash_id="1" data-sash_id="1" leaf_id="1" data-leaf_id="1" origin="t" data-set_id="0" data-set_part_id="0"/>
<path d="M50.000999999999998 1019.402199999999993 L50.000999999999998 929.402199999999993 L1970.500000000000227 929.402199999999993 L1970.500000000000227 1019.402199999999993 L50.000999999999998 1019.402199999999993" style="stroke:#58606A;stroke-width:1;fill:#262E38" code="ALU PORTAIL" transom_id="2" data-transom_id="2" data-transomInLeaf_id="-1" sash_id="1" data-sash_id="1" leaf_id="1" data-leaf_id="1" origin="t" data-set_id="0" data-set_part_id="0"/>
<path d="M1955.500000000000227 1513.000999999999976 L1955.500000000000227 189.000999999999976 L2045.500000000000227 189.000999999999976 L2045.500000000000227 1513.000999999999976 L1955.500000000000227 1513.000999999999976" style="stroke:#58606A;stroke-width:1;fill:#262E38" code="ALU PORTAIL" transom_id="1" data-transom_id="1" data-transomInLeaf_id="-1" sash_id="1" data-sash_id="1" leaf_id="1" data-leaf_id="1" origin="t" data-set_id="0" data-set_part_id="0"/>
<path d="M4023.501000000000204 1524.500999999999976 L4023.501000000000204 177.500999999999976 L4041.001000000000204 177.500999999999976 L4041.001000000000204 1524.500999999999976 L4023.501000000000204 1524.500999999999976" style="stroke:#58606A;stroke-width:1;fill:#262E38" code="ALU COUL" sash_id="1" data-sash_id="1" leaf_id="1" data-leaf_id="1" origin="S" data-set_id="0" data-set_part_id="0"/>
<path d="M-42.999000000000002 118.500999999999976 L-42.999000000000002 100.000999999999976 L4441.001000000000204 100.000999999999976 L4441.001000000000204 118.500999999999976 L-42.999000000000002 118.500999999999976" style="stroke:#58606A;stroke-width:1;fill:#262E38" code="ALU COUL" sash_id="1" data-sash_id="1" leaf_id="1" data-leaf_id="1" origin="S" data-set_id="0" data-set_part_id="0"/>
<path d="M-39.999000000000002 1524.500999999999976 L-39.999000000000002 177.500999999999976 L-22.499000000000002 177.500999999999976 L-22.499000000000002 1524.500999999999976 L-39.999000000000002 1524.500999999999976" style="stroke:#58606A;stroke-width:1;fill:#262E38" code="ALU COUL" sash_id="1" data-sash_id="1" leaf_id="1" data-leaf_id="1" origin="S" data-set_id="0" data-set_part_id="0"/>
<path d="M3367.635000000000218 1640.001999999999953 A50 50 0 1,1 3267.635000000000218 1640.001999999999953 A50 50 0 1,1 3367.635000000000218 1640.001999999999953" style="stroke:#646464;stroke-width:1;fill:#DCDCDC" code="ALU COUL" sash_id="1" data-sash_id="1" leaf_id="1" data-leaf_id="1" origin="S" data-set_id="0" data-set_part_id="0"/>
<path d="M733.365000000000009 1640.001999999999953 A50 50 0 1,1 633.365000000000009 1640.001999999999953 A50 50 0 1,1 733.365000000000009 1640.001999999999953" style="stroke:#646464;stroke-width:1;fill:#DCDCDC" code="ALU COUL" sash_id="1" data-sash_id="1" leaf_id="1" data-leaf_id="1" origin="S" data-set_id="0" data-set_part_id="0"/>
<path d="M4041.001000000000204 189.000999999999976 L4041.001000000000204 1513.000999999999976 L3951.001000000000204 1513.000999999999976 L3951.001000000000204 189.000999999999976 L4041.001000000000204 189.000999999999976" style="stroke:#58606A;stroke-width:1;fill:#262E38" code="ALU COUL" sash_id="1" data-sash_id="1" leaf_id="1" data-leaf_id="1" origin="S" data-set_id="0" data-set_part_id="0"/>
<path d="M-39.999000000000002 1513.000999999999976 L-39.999000000000002 189.000999999999976 L50.000999999999998 189.000999999999976 L50.000999999999998 1513.000999999999976 L-39.999000000000002 1513.000999999999976" style="stroke:#58606A;stroke-width:1;fill:#262E38" code="ALU COUL" sash_id="1" data-sash_id="1" leaf_id="1" data-leaf_id="1" origin="S" data-set_id="0" data-set_part_id="0"/>
<path d="M4441.001000000000204 1663.000999999999976 L-42.999000000000002 1663.000999999999976 L-42.999000000000002 1513.000999999999976 L4441.001000000000204 1513.000999999999976 L4441.001000000000204 1663.000999999999976" style="stroke:#58606A;stroke-width:1;fill:#262E38" code="ALU COUL" sash_id="1" data-sash_id="1" leaf_id="1" data-leaf_id="1" origin="S" data-set_id="0" data-set_part_id="0"/>
<path d="M-42.999000000000002 190.000999999999976 L-42.999000000000002 100.000999999999976 L4441.001000000000204 100.000999999999976 L4441.001000000000204 190.000999999999976 L-42.999000000000002 190.000999999999976" style="stroke:#58606A;stroke-width:1;fill:#262E38" code="ALU COUL" sash_id="1" data-sash_id="1" leaf_id="1" data-leaf_id="1" origin="S" data-set_id="0" data-set_part_id="0"/>
<g code="ALU COUL">
<rect x="0" y="1685.001999999999953" width="4051.002000000000408" height="15" stroke="#000000" stroke-width="0.1%" fill="#808080" fill-opacity="1" stroke-opacity="1" sash_id="1" data-sash_id="1" leaf_id="1" origin="S" data-set_id="0" data-set_part_id="0"/>
<rect x="4076.002000000000408" y="1685.001999999999953" width="175" height="15" stroke="#000000" stroke-width="0.1%" fill="#808080" fill-opacity="1" stroke-opacity="1" sash_id="1" data-sash_id="1" leaf_id="1" origin="S" data-set_id="0" data-set_part_id="0"/>
<rect x="4276.002000000000408" y="1685.001999999999953" width="175" height="15" stroke="#000000" stroke-width="0.1%" fill="#808080" fill-opacity="1" stroke-opacity="1" sash_id="1" data-sash_id="1" leaf_id="1" origin="S" data-set_id="0" data-set_part_id="0"/>
<rect x="4476.002000000000408" y="1685.001999999999953" width="175" height="15" stroke="#000000" stroke-width="0.1%" fill="#808080" fill-opacity="1" stroke-opacity="1" sash_id="1" data-sash_id="1" leaf_id="1" origin="S" data-set_id="0" data-set_part_id="0"/>
<rect x="0" y="1685.001999999999953" width="4051.002000000000408" height="15" stroke="#000000" stroke-width="0.1%" fill="#808080" fill-opacity="1" stroke-opacity="1" sash_id="1" data-sash_id="1" leaf_id="1" origin="S" data-set_id="0" data-set_part_id="0"/>
<rect x="4076.002000000000408" y="1685.001999999999953" width="175" height="15" stroke="#000000" stroke-width="0.1%" fill="#808080" fill-opacity="1" stroke-opacity="1" sash_id="1" data-sash_id="1" leaf_id="1" origin="S" data-set_id="0" data-set_part_id="0"/>
<rect x="4276.002000000000408" y="1685.001999999999953" width="175" height="15" stroke="#000000" stroke-width="0.1%" fill="#808080" fill-opacity="1" stroke-opacity="1" sash_id="1" data-sash_id="1" leaf_id="1" origin="S" data-set_id="0" data-set_part_id="0"/>
<rect x="4476.002000000000408" y="1685.001999999999953" width="175" height="15" stroke="#000000" stroke-width="0.1%" fill="#808080" fill-opacity="1" stroke-opacity="1" sash_id="1" data-sash_id="1" leaf_id="1" origin="S" data-set_id="0" data-set_part_id="0"/>
<data-no-click>true</data-no-click>
</g>
<g code="ALU COUL">
<path d="M4501.002000000000408 1700.001999999999953 L4501.002000000000408 1613.001999999999953 L4481.002000000000408 1613.001999999999953 L4481.002000000000408 1583.001999999999953 L4531.002000000000408 1583.001999999999953 L4561.002000000000408 1700.001999999999953 L4501.002000000000408 1700.001999999999953" stroke="#000000" stroke-width="0.1%" fill="#000000" fill-opacity="1" stroke-opacity="1" sash_id="1" data-sash_id="1" leaf_id="1" origin="S" data-set_id="0" data-set_part_id="0"/>
<path d="M4501.002000000000408 1700.001999999999953 L4501.002000000000408 1613.001999999999953 L4481.002000000000408 1613.001999999999953 L4481.002000000000408 1583.001999999999953 L4531.002000000000408 1583.001999999999953 L4561.002000000000408 1700.001999999999953 L4501.002000000000408 1700.001999999999953" stroke="#000000" stroke-width="0.1%" fill="#000000" fill-opacity="1" stroke-opacity="1" sash_id="1" data-sash_id="1" leaf_id="1" origin="S" data-set_id="0" data-set_part_id="0"/>
<data-no-click>true</data-no-click>
</g>
<g code="ALU COUL">
<rect x="-44.999000000000002" y="1511.000999999999976" width="4" height="154" stroke="#08101A" stroke-width="0.1%" fill="#08101A" fill-opacity="1" stroke-opacity="1" sash_id="1" data-sash_id="1" leaf_id="1" origin="S" data-set_id="0" data-set_part_id="0"/>
<data-no-click>true</data-no-click>
</g>
<g code="ALU COUL">
<rect x="-44.999000000000002" y="98.000999999999976" width="4" height="93" stroke="#08101A" stroke-width="0.1%" fill="#08101A" fill-opacity="1" stroke-opacity="1" sash_id="1" data-sash_id="1" leaf_id="1" origin="S" data-set_id="0" data-set_part_id="0"/>
<data-no-click>true</data-no-click>
</g>
<g code="ALU COUL">
<rect x="4441.001000000000204" y="1511.000999999999976" width="4" height="154" stroke="#08101A" stroke-width="0.1%" fill="#08101A" fill-opacity="1" stroke-opacity="1" sash_id="1" data-sash_id="1" leaf_id="1" origin="S" data-set_id="0" data-set_part_id="0"/>
<data-no-click>true</data-no-click>
</g>
<g code="ALU COUL">
<rect x="4441.001000000000204" y="98.000999999999976" width="4" height="93" stroke="#08101A" stroke-width="0.1%" fill="#08101A" fill-opacity="1" stroke-opacity="1" sash_id="1" data-sash_id="1" leaf_id="1" origin="S" data-set_id="0" data-set_part_id="0"/>
<data-no-click>true</data-no-click>
</g>
<path d="M4001.002000000000408 1700.001999999999953 L4001.002000000000408 0 L4401.002000000000408 0 L4401.002000000000408 1700.001999999999953 L4001.002000000000408 1700.001999999999953" style="stroke:#000000;stroke-width:1" fill-opacity="0" fill="none" code="ALU PORTAIL" leaf_id="0" data-leaf_id="0" origin="F" data-set_id="0" data-set_part_id="0"/>
<path d="M-400 1700.001999999999953 L-400 0 L0 0 L0 1700.001999999999953 L-400 1700.001999999999953" style="stroke:#000000;stroke-width:1" fill-opacity="0" fill="none" code="ALU PORTAIL" leaf_id="0" data-leaf_id="0" origin="F" data-set_id="0" data-set_part_id="0"/>
<path d="M0 1700.001999999999953 L0 100 L4001.002000000000408 100 L4001.002000000000408 1700.001999999999953 L0 1700.001999999999953" style="stroke:#000000;stroke-width:1" fill-opacity="0" fill="none" code="" leaf_id="0" data-leaf_id="0" origin="F" data-set_id="0" data-set_part_id="0"/>
<path d="M0.001 1700.000999999999976 L0.001 100.000999999999976 L4001.001000000000204 100.000999999999976 L4001.001000000000204 1700.000999999999976 L0.001 1700.000999999999976" style="stroke:#000000;stroke-width:1" fill-opacity="0" fill="none" stroke-dasharray="8" code="" leaf_id="0" data-leaf_id="0" origin="?" data-set_id="0" data-set_part_id="0"/>
<g code="ALU COUL">
<rect x="15.000999999999998" y="603.000999999999976" rx="10" ry="10" width="120" height="20" stroke="#000000" stroke-width="0.1%" fill="#C8C8C8" fill-opacity="1" stroke-opacity="1" sash_id="1" data-sash_id="1" leaf_id="1" origin="S" data-set_id="0" data-set_part_id="0"/>
<rect x="20.000999999999998" y="683.000999999999976" rx="10" ry="10" width="10" height="25" stroke="#000000" stroke-width="0.1%" fill="#C8C8C8" fill-opacity="1" stroke-opacity="1" sash_id="1" data-sash_id="1" leaf_id="1" origin="S" data-set_id="0" data-set_part_id="0"/>
<circle cx="25.000999999999998" cy="683.000999999999976" r="9" stroke="#000000" stroke-width="0.1%" fill="#C8C8C8" fill-opacity="1" stroke-opacity="1" sash_id="1" data-sash_id="1" leaf_id="1" origin="S" data-set_id="0" data-set_part_id="0"/>
<data-no-click>true</data-no-click>
</g>
<g code="ALU COUL">
<rect x="-39.999000000000002" y="558.000999999999976" rx="20" ry="20" width="-100" height="90" stroke="#000000" stroke-width="0.2%" fill="#262E38" fill-opacity="1" stroke-opacity="1" sash_id="1" data-sash_id="1" leaf_id="1" origin="S" data-set_id="0" data-set_part_id="0"/>
<rect x="-49.999000000000002" y="563.000999999999976" width="15" height="80" stroke="#000000" stroke-width="0.2%" fill="#000000" fill-opacity="1" stroke-opacity="1" sash_id="1" data-sash_id="1" leaf_id="1" origin="S" data-set_id="0" data-set_part_id="0"/>
<rect x="-49.999000000000002" y="563.000999999999976" width="55" height="40" stroke="#000000" stroke-width="0.2%" fill="#000000" fill-opacity="1" stroke-opacity="1" sash_id="1" data-sash_id="1" leaf_id="1" origin="S" data-set_id="0" data-set_part_id="0"/>
<data-no-click>true</data-no-click>
</g>
</g>
<g/>
</svg>