<svg version="1.1" baseProfile="full" xmlns="http://www.w3.org/2000/svg" xmlns:xlink="http://www.w3.org/1999/xlink" viewbox="-400 -0 4800.002000000000408 1500.001999999999953" winpro-url="http://www.winpro.be" winpro-info="software for windows and doors manufacturer" winpro-version="WinPro 10.6.0.5130" viewBox="0 0 3976.501 1500.001">
<defs>
<marker id="markerArrow1" markerWidth="13" markerHeight="13" refx="9" refy="6" orient="auto">
<path d="M2,2 L2,10 L10,6 Z" fill="#000000"/>
</marker>
<marker id="markerArrow2" markerWidth="13" markerHeight="13" refx="2" refy="6" orient="auto">
<path d="M10,2 L10,10 L2,6 Z" fill="#000000"/>
</marker>
</defs>
<g>
<path d="M2097.001000000000204 204.000999999999976 L2097.001000000000204 114.000999999999976 L3873.001000000000204 114.000999999999976 L3873.001000000000204 204.000999999999976 L2097.001000000000204 204.000999999999976" style="stroke:#58606A;stroke-width:1;fill:#262E38" code="ALU 2VTX" sash_id="1" data-sash_id="1" leaf_id="2" data-leaf_id="2" origin="S" data-set_id="0" data-set_part_id="0"/>
<path d="M3873.001000000000204 1455.000999999999976 L2097.001000000000204 1455.000999999999976 L2097.001000000000204 1305.000999999999976 L3873.001000000000204 1305.000999999999976 L3873.001000000000204 1455.000999999999976" style="stroke:#58606A;stroke-width:1;fill:#262E38" code="ALU 2VTX" sash_id="1" data-sash_id="1" leaf_id="2" data-leaf_id="2" origin="S" data-set_id="0" data-set_part_id="0"/>
<path d="M3872.001000000000204 1458.000999999999976 L3872.001000000000204 104.000999999999976 L3975.001000000000204 104.000999999999976 L3975.001000000000204 1458.000999999999976 L3872.001000000000204 1458.000999999999976" style="stroke:#58606A;stroke-width:1;fill:#262E38" code="ALU 2VTX" sash_id="1" data-sash_id="1" leaf_id="2" data-leaf_id="2" origin="S" data-set_id="0" data-set_part_id="0"/>
<path d="M2008.000999999999976 1458.000999999999976 L2008.000999999999976 104.000999999999976 L2098.001000000000204 104.000999999999976 L2098.001000000000204 1458.000999999999976 L2008.000999999999976 1458.000999999999976" style="stroke:#58606A;stroke-width:1;fill:#262E38" code="ALU 2VTX" sash_id="1" data-sash_id="1" leaf_id="2" data-leaf_id="2" origin="S" data-set_id="0" data-set_part_id="0"/>
<path d="M2082.001000000000204 1148.200999999999794 L3888.001000000000204 1148.200999999999794 L3888.001000000000204 1320.000999999999976 L2082.001000000000204 1320.000999999999976 L2082.001000000000204 1148.200999999999794" style="stroke:#58606A;stroke-width:1;fill:#2C343E" code="ALU PORTAIL" sash_id="1" data-sash_id="1" leaf_id="2" data-leaf_id="2" data-fillingTotal_id="2" origin="p" data-set_id="0" data-set_part_id="0"/>
<path d="M3888.001000000000204 1152.90099999999984 L2082.001000000000204 1152.90099999999984 L2082.001000000000204 908.40099999999984 L3888.001000000000204 908.40099999999984 L3888.001000000000204 1152.90099999999984" style="stroke:#58606A;stroke-width:1;fill:#2C343E" code="ALU PORTAIL" sash_id="1" data-sash_id="1" leaf_id="2" data-leaf_id="2" data-fillingTotal_id="2" origin="p" data-set_id="0" data-set_part_id="0"/>
<path d="M3888.001000000000204 913.100999999999885 L2082.001000000000204 913.100999999999885 L2082.001000000000204 668.600999999999885 L3888.001000000000204 668.600999999999885 L3888.001000000000204 913.100999999999885" style="stroke:#58606A;stroke-width:1;fill:#2C343E" code="ALU PORTAIL" sash_id="1" data-sash_id="1" leaf_id="2" data-leaf_id="2" data-fillingTotal_id="2" origin="p" data-set_id="0" data-set_part_id="0"/>
<path d="M3888.001000000000204 673.300999999999931 L2082.001000000000204 673.300999999999931 L2082.001000000000204 428.800999999999931 L3888.001000000000204 428.800999999999931 L3888.001000000000204 673.300999999999931" style="stroke:#58606A;stroke-width:1;fill:#2C343E" code="ALU PORTAIL" sash_id="1" data-sash_id="1" leaf_id="2" data-leaf_id="2" data-fillingTotal_id="2" origin="p" data-set_id="0" data-set_part_id="0"/>
<path d="M3888.001000000000204 433.500999999999976 L2082.001000000000204 433.500999999999976 L2082.001000000000204 189.000999999999976 L3888.001000000000204 189.000999999999976 L3888.001000000000204 433.500999999999976" style="stroke:#58606A;stroke-width:1;fill:#2C343E" code="ALU PORTAIL" sash_id="1" data-sash_id="1" leaf_id="2" data-leaf_id="2" data-fillingTotal_id="2" origin="p" data-set_id="0" data-set_part_id="0"/>
<path d="M2082.001000000000204 1320.000999999999976 L2082.001000000000204 189.000999999999976 L3888.001000000000204 189.000999999999976 L3888.001000000000204 1320.000999999999976 L2082.001000000000204 1320.000999999999976" style="stroke:#000000;stroke-width:1" fill-opacity="0" fill="none" code="ALU PORTAIL" sash_id="1" data-sash_id="1" leaf_id="2" data-leaf_id="2" filling_id="1" data-filling_id="1" data-fillingTotal_id="2" origin="p" data-set_id="0" data-set_part_id="0"/>
<path d="M3873.001000000000204 116.000999999999976 L3873.001000000000204 104.000999999999976 L3890.501000000000204 104.000999999999976 L3890.501000000000204 116.000999999999976 L3873.001000000000204 116.000999999999976" style="stroke:#58606A;stroke-width:1;fill:#262E38" code="ALU 2VTX" sash_id="1" data-sash_id="1" leaf_id="2" data-leaf_id="2" origin="S" data-set_id="0" data-set_part_id="0"/>
<path d="M2079.501000000000204 116.000999999999976 L2079.501000000000204 104.000999999999976 L2097.001000000000204 104.000999999999976 L2097.001000000000204 116.000999999999976 L2079.501000000000204 116.000999999999976" style="stroke:#58606A;stroke-width:1;fill:#262E38" code="ALU 2VTX" sash_id="1" data-sash_id="1" leaf_id="2" data-leaf_id="2" origin="S" data-set_id="0" data-set_part_id="0"/>
<path d="M2008.000999999999976 1458.000999999999976 L2008.000999999999976 1435.000999999999976 L2025.501000000000204 1435.000999999999976 L2025.501000000000204 1458.000999999999976 L2008.000999999999976 1458.000999999999976" style="stroke:#58606A;stroke-width:1;fill:#262E38" code="ALU 2VTX" sash_id="1" data-sash_id="1" leaf_id="2" data-leaf_id="2" origin="S" data-set_id="0" data-set_part_id="0"/>
<path d="M2097.001000000000204 1455.000999999999976 L2097.001000000000204 1437.500999999999976 L3873.001000000000204 1437.500999999999976 L3873.001000000000204 1455.000999999999976 L2097.001000000000204 1455.000999999999976" style="stroke:#58606A;stroke-width:1;fill:#262E38" code="ALU 2VTX" sash_id="1" data-sash_id="1" leaf_id="2" data-leaf_id="2" origin="S" data-set_id="0" data-set_part_id="0"/>
<path d="M3944.501000000000204 1457.000999999999976 L3944.501000000000204 105.000999999999976 L3975.001000000000204 105.000999999999976 L3975.001000000000204 1457.000999999999976 L3944.501000000000204 1457.000999999999976" style="stroke:#58606A;stroke-width:1;fill:#262E38" code="ALU 2VTX" sash_id="1" data-sash_id="1" leaf_id="2" data-leaf_id="2" origin="S" data-set_id="0" data-set_part_id="0"/>
<path d="M2097.001000000000204 204.000999999999976 L2097.001000000000204 114.000999999999976 L3873.001000000000204 114.000999999999976 L3873.001000000000204 204.000999999999976 L2097.001000000000204 204.000999999999976" style="stroke:#58606A;stroke-width:1;fill:#262E38" code="ALU 2VTX" sash_id="1" data-sash_id="1" leaf_id="2" data-leaf_id="2" origin="S" data-set_id="0" data-set_part_id="0"/>
<path d="M3873.001000000000204 1455.000999999999976 L2097.001000000000204 1455.000999999999976 L2097.001000000000204 1305.000999999999976 L3873.001000000000204 1305.000999999999976 L3873.001000000000204 1455.000999999999976" style="stroke:#58606A;stroke-width:1;fill:#262E38" code="ALU 2VTX" sash_id="1" data-sash_id="1" leaf_id="2" data-leaf_id="2" origin="S" data-set_id="0" data-set_part_id="0"/>
<path d="M3872.001000000000204 1458.000999999999976 L3872.001000000000204 104.000999999999976 L3975.001000000000204 104.000999999999976 L3975.001000000000204 1458.000999999999976 L3872.001000000000204 1458.000999999999976" style="stroke:#58606A;stroke-width:1;fill:#262E38" code="ALU 2VTX" sash_id="1" data-sash_id="1" leaf_id="2" data-leaf_id="2" origin="S" data-set_id="0" data-set_part_id="0"/>
<g code="ALU 2VTX">
<path d="M3969.001000000000204 1480.000999999999976 L3921.001000000000204 1480.000999999999976 L3921.001000000000204 1480.000999999999976 A6 6 0 0,0 3915.001000000000204 1486.000999999999976 L3915.001000000000204 1500.000999999999976 L3975.001000000000204 1500.000999999999976 L3975.001000000000204 1486.000999999999976 L3975.001000000000204 1486.000999999999976 A6 6 0 0,0 3969.001000000000204 1480.000999999999976 L3969.001000000000204 1480.000999999999976" stroke="#000000" stroke-width="0.2%" fill="#969696" fill-opacity="1" stroke-opacity="1" sash_id="1" data-sash_id="1" leaf_id="2" origin="S" data-set_id="0" data-set_part_id="0"/>
<rect x="3935.001000000000204" y="1462.000999999999976" width="20" height="18" stroke="#000000" stroke-width="0.2%" fill="#969696" fill-opacity="1" stroke-opacity="1" sash_id="1" data-sash_id="1" leaf_id="2" origin="S" data-set_id="0" data-set_part_id="0"/>
<path d="M3969.001000000000204 1480.000999999999976 L3921.001000000000204 1480.000999999999976 L3921.001000000000204 1480.000999999999976 A6 6 0 0,0 3915.001000000000204 1486.000999999999976 L3915.001000000000204 1500.000999999999976 L3975.001000000000204 1500.000999999999976 L3975.001000000000204 1486.000999999999976 L3975.001000000000204 1486.000999999999976 A6 6 0 0,0 3969.001000000000204 1480.000999999999976 L3969.001000000000204 1480.000999999999976" stroke="#000000" stroke-width="0.2%" fill="#969696" fill-opacity="1" stroke-opacity="1" sash_id="1" data-sash_id="1" leaf_id="2" origin="S" data-set_id="0" data-set_part_id="0"/>
<rect x="3935.001000000000204" y="1462.000999999999976" width="20" height="18" stroke="#000000" stroke-width="0.2%" fill="#969696" fill-opacity="1" stroke-opacity="1" sash_id="1" data-sash_id="1" leaf_id="2" origin="S" data-set_id="0" data-set_part_id="0"/>
<data-no-click>true</data-no-click>
</g>
<g code="ALU 2VTX">
<path d="M4000.001000000000204 100.000999999999976 L4000.001000000000204 60.000999999999976 L3990.001000000000204 60.000999999999976 L3926.796800000000076 70.259299999999939 L3926.796806474587356 70.259339891191985 A20 20 0 0,0 3910.001000000000204 90.000999999999976 L3910.001000000000204 100.000999999999976 L4000.001000000000204 100.000999999999976 L4000.001000000000204 100.000999999999976" stroke="#000000" stroke-width="0.2%" fill="#262E38" fill-opacity="1" stroke-opacity="1" sash_id="1" data-sash_id="1" leaf_id="2" origin="S" data-set_id="0" data-set_part_id="0"/>
<path d="M4000.001000000000204 100.000999999999976 L4000.001000000000204 60.000999999999976 L3990.001000000000204 60.000999999999976 L3926.796800000000076 70.259299999999939 L3926.796806474587356 70.259339891191985 A20 20 0 0,0 3910.001000000000204 90.000999999999976 L3910.001000000000204 100.000999999999976 L4000.001000000000204 100.000999999999976 L4000.001000000000204 100.000999999999976" stroke="#000000" stroke-width="0.2%" fill="#262E38" fill-opacity="1" stroke-opacity="1" sash_id="1" data-sash_id="1" leaf_id="2" origin="S" data-set_id="0" data-set_part_id="0"/>
<data-no-click>true</data-no-click>
</g>
<g code="ALU 2VTX">
<rect x="3870.501000000000204" y="1458.000999999999976" width="106" height="4" stroke="#171F29" stroke-width="0.1%" fill="#171F29" fill-opacity="1" stroke-opacity="1" sash_id="1" data-sash_id="1" leaf_id="2" origin="S" data-set_id="0" data-set_part_id="0"/>
<rect x="3870.501000000000204" y="1458.000999999999976" width="106" height="4" stroke="#171F29" stroke-width="0.1%" fill="#171F29" fill-opacity="1" stroke-opacity="1" sash_id="1" data-sash_id="1" leaf_id="2" origin="S" data-set_id="0" data-set_part_id="0"/>
<data-no-click>true</data-no-click>
</g>
<g code="ALU 2VTX">
<rect x="3870.501000000000204" y="100.000999999999976" width="106" height="4" stroke="#171F29" stroke-width="0.1%" fill="#171F29" fill-opacity="1" stroke-opacity="1" sash_id="1" data-sash_id="1" leaf_id="2" origin="S" data-set_id="0" data-set_part_id="0"/>
<rect x="3870.501000000000204" y="100.000999999999976" width="106" height="4" stroke="#171F29" stroke-width="0.1%" fill="#171F29" fill-opacity="1" stroke-opacity="1" sash_id="1" data-sash_id="1" leaf_id="2" origin="S" data-set_id="0" data-set_part_id="0"/>
<data-no-click>true</data-no-click>
</g>
<path d="M2008.000999999999976 1458.000999999999976 L2008.000999999999976 104.000999999999976 L2098.001000000000204 104.000999999999976 L2098.001000000000204 1458.000999999999976 L2008.000999999999976 1458.000999999999976" style="stroke:#58606A;stroke-width:1;fill:#262E38" code="ALU 2VTX" sash_id="1" data-sash_id="1" leaf_id="2" data-leaf_id="2" origin="S" data-set_id="0" data-set_part_id="0"/>
<g code="ALU 2VTX">
<rect x="2006.500999999999976" y="1458.000999999999976" width="93" height="4" stroke="#171F29" stroke-width="0.1%" fill="#171F29" fill-opacity="1" stroke-opacity="1" sash_id="1" data-sash_id="1" leaf_id="2" origin="S" data-set_id="0" data-set_part_id="0"/>
<rect x="2006.500999999999976" y="1458.000999999999976" width="93" height="4" stroke="#171F29" stroke-width="0.1%" fill="#171F29" fill-opacity="1" stroke-opacity="1" sash_id="1" data-sash_id="1" leaf_id="2" origin="S" data-set_id="0" data-set_part_id="0"/>
<data-no-click>true</data-no-click>
</g>
<g code="ALU 2VTX">
<rect x="2006.500999999999976" y="100.000999999999976" width="93" height="4" stroke="#171F29" stroke-width="0.1%" fill="#171F29" fill-opacity="1" stroke-opacity="1" sash_id="1" data-sash_id="1" leaf_id="2" origin="S" data-set_id="0" data-set_part_id="0"/>
<rect x="2006.500999999999976" y="100.000999999999976" width="93" height="4" stroke="#171F29" stroke-width="0.1%" fill="#171F29" fill-opacity="1" stroke-opacity="1" sash_id="1" data-sash_id="1" leaf_id="2" origin="S" data-set_id="0" data-set_part_id="0"/>
<data-no-click>true</data-no-click>
</g>
<path d="M127.001000000000005 204.000999999999976 L127.001000000000005 114.000999999999976 L1903.000999999999976 114.000999999999976 L1903.000999999999976 204.000999999999976 L127.001000000000005 204.000999999999976" style="stroke:#58606A;stroke-width:1;fill:#262E38" code="ALU 2VTX" sash_id="1" data-sash_id="1" leaf_id="1" data-leaf_id="1" origin="S" data-set_id="0" data-set_part_id="0"/>
<path d="M1903.000999999999976 1455.000999999999976 L127.001000000000005 1455.000999999999976 L127.001000000000005 1305.000999999999976 L1903.000999999999976 1305.000999999999976 L1903.000999999999976 1455.000999999999976" style="stroke:#58606A;stroke-width:1;fill:#262E38" code="ALU 2VTX" sash_id="1" data-sash_id="1" leaf_id="1" data-leaf_id="1" origin="S" data-set_id="0" data-set_part_id="0"/>
<path d="M1902.000999999999749 1458.000999999999976 L1902.000999999999749 104.000999999999976 L1992.001000000000204 104.000999999999976 L1992.001000000000204 1458.000999999999976 L1902.000999999999749 1458.000999999999976" style="stroke:#58606A;stroke-width:1;fill:#262E38" code="ALU 2VTX" sash_id="1" data-sash_id="1" leaf_id="1" data-leaf_id="1" origin="S" data-set_id="0" data-set_part_id="0"/>
<path d="M25.000999999999962 1458.000999999999976 L25.000999999999962 104.000999999999976 L128.001000000000033 104.000999999999976 L128.001000000000033 1458.000999999999976 L25.000999999999962 1458.000999999999976" style="stroke:#58606A;stroke-width:1;fill:#262E38" code="ALU 2VTX" sash_id="1" data-sash_id="1" leaf_id="1" data-leaf_id="1" origin="S" data-set_id="0" data-set_part_id="0"/>
<path d="M112.001000000000005 1148.200999999999794 L1918.000999999999976 1148.200999999999794 L1918.000999999999976 1320.000999999999976 L112.001000000000005 1320.000999999999976 L112.001000000000005 1148.200999999999794" style="stroke:#58606A;stroke-width:1;fill:#2C343E" code="ALU PORTAIL" sash_id="1" data-sash_id="1" leaf_id="1" data-leaf_id="1" data-fillingTotal_id="1" origin="p" data-set_id="0" data-set_part_id="0"/>
<path d="M1918.000999999999976 1152.90099999999984 L112.001000000000005 1152.90099999999984 L112.001000000000005 908.40099999999984 L1918.000999999999976 908.40099999999984 L1918.000999999999976 1152.90099999999984" style="stroke:#58606A;stroke-width:1;fill:#2C343E" code="ALU PORTAIL" sash_id="1" data-sash_id="1" leaf_id="1" data-leaf_id="1" data-fillingTotal_id="1" origin="p" data-set_id="0" data-set_part_id="0"/>
<path d="M1918.000999999999976 913.100999999999885 L112.001000000000005 913.100999999999885 L112.001000000000005 668.600999999999885 L1918.000999999999976 668.600999999999885 L1918.000999999999976 913.100999999999885" style="stroke:#58606A;stroke-width:1;fill:#2C343E" code="ALU PORTAIL" sash_id="1" data-sash_id="1" leaf_id="1" data-leaf_id="1" data-fillingTotal_id="1" origin="p" data-set_id="0" data-set_part_id="0"/>
<path d="M1918.000999999999976 673.300999999999931 L112.001000000000005 673.300999999999931 L112.001000000000005 428.800999999999931 L1918.000999999999976 428.800999999999931 L1918.000999999999976 673.300999999999931" style="stroke:#58606A;stroke-width:1;fill:#2C343E" code="ALU PORTAIL" sash_id="1" data-sash_id="1" leaf_id="1" data-leaf_id="1" data-fillingTotal_id="1" origin="p" data-set_id="0" data-set_part_id="0"/>
<path d="M1918.000999999999976 433.500999999999976 L112.001000000000005 433.500999999999976 L112.001000000000005 189.000999999999976 L1918.000999999999976 189.000999999999976 L1918.000999999999976 433.500999999999976" style="stroke:#58606A;stroke-width:1;fill:#2C343E" code="ALU PORTAIL" sash_id="1" data-sash_id="1" leaf_id="1" data-leaf_id="1" data-fillingTotal_id="1" origin="p" data-set_id="0" data-set_part_id="0"/>
<path d="M112.001000000000005 1320.000999999999976 L112.001000000000005 189.000999999999976 L1918.000999999999976 189.000999999999976 L1918.000999999999976 1320.000999999999976 L112.001000000000005 1320.000999999999976" style="stroke:#000000;stroke-width:1" fill-opacity="0" fill="none" code="ALU PORTAIL" sash_id="1" data-sash_id="1" leaf_id="1" data-leaf_id="1" filling_id="1" data-filling_id="1" data-fillingTotal_id="1" origin="p" data-set_id="0" data-set_part_id="0"/>
<path d="M1903.000999999999749 116.000999999999976 L1903.000999999999749 104.000999999999976 L1920.500999999999749 104.000999999999976 L1920.500999999999749 116.000999999999976 L1903.000999999999749 116.000999999999976" style="stroke:#58606A;stroke-width:1;fill:#262E38" code="ALU 2VTX" sash_id="1" data-sash_id="1" leaf_id="1" data-leaf_id="1" origin="S" data-set_id="0" data-set_part_id="0"/>
<path d="M109.501000000000033 116.000999999999976 L109.501000000000033 104.000999999999976 L127.001000000000033 104.000999999999976 L127.001000000000033 116.000999999999976 L109.501000000000033 116.000999999999976" style="stroke:#58606A;stroke-width:1;fill:#262E38" code="ALU 2VTX" sash_id="1" data-sash_id="1" leaf_id="1" data-leaf_id="1" origin="S" data-set_id="0" data-set_part_id="0"/>
<path d="M127.001000000000005 1455.000999999999976 L127.001000000000005 1437.500999999999976 L1903.000999999999976 1437.500999999999976 L1903.000999999999976 1455.000999999999976 L127.001000000000005 1455.000999999999976" style="stroke:#58606A;stroke-width:1;fill:#262E38" code="ALU 2VTX" sash_id="1" data-sash_id="1" leaf_id="1" data-leaf_id="1" origin="S" data-set_id="0" data-set_part_id="0"/>
<path d="M1973.500999999999749 1458.000999999999976 L1973.500999999999749 104.000999999999976 L1992.001000000000204 104.000999999999976 L1992.001000000000204 1458.000999999999976 L1973.500999999999749 1458.000999999999976" style="stroke:#58606A;stroke-width:1;fill:#262E38" code="ALU 2VTX" sash_id="1" data-sash_id="1" leaf_id="1" data-leaf_id="1" origin="S" data-set_id="0" data-set_part_id="0"/>
<path d="M25.000999999999962 1457.000999999999976 L25.000999999999962 105.000999999999976 L55.501000000000033 105.000999999999976 L55.501000000000033 1457.000999999999976 L25.000999999999962 1457.000999999999976" style="stroke:#58606A;stroke-width:1;fill:#262E38" code="ALU 2VTX" sash_id="1" data-sash_id="1" leaf_id="1" data-leaf_id="1" origin="S" data-set_id="0" data-set_part_id="0"/>
<path d="M127.001000000000005 204.000999999999976 L127.001000000000005 114.000999999999976 L1903.000999999999976 114.000999999999976 L1903.000999999999976 204.000999999999976 L127.001000000000005 204.000999999999976" style="stroke:#58606A;stroke-width:1;fill:#262E38" code="ALU 2VTX" sash_id="1" data-sash_id="1" leaf_id="1" data-leaf_id="1" origin="S" data-set_id="0" data-set_part_id="0"/>
<path d="M1903.000999999999976 1455.000999999999976 L127.001000000000005 1455.000999999999976 L127.001000000000005 1305.000999999999976 L1903.000999999999976 1305.000999999999976 L1903.000999999999976 1455.000999999999976" style="stroke:#58606A;stroke-width:1;fill:#262E38" code="ALU 2VTX" sash_id="1" data-sash_id="1" leaf_id="1" data-leaf_id="1" origin="S" data-set_id="0" data-set_part_id="0"/>
<path d="M1902.000999999999749 1458.000999999999976 L1902.000999999999749 104.000999999999976 L1992.001000000000204 104.000999999999976 L1992.001000000000204 1458.000999999999976 L1902.000999999999749 1458.000999999999976" style="stroke:#58606A;stroke-width:1;fill:#262E38" code="ALU 2VTX" sash_id="1" data-sash_id="1" leaf_id="1" data-leaf_id="1" origin="S" data-set_id="0" data-set_part_id="0"/>
<g code="ALU 2VTX">
<rect x="1900.500999999999749" y="1458.000999999999976" width="93" height="4" stroke="#171F29" stroke-width="0.1%" fill="#171F29" fill-opacity="1" stroke-opacity="1" sash_id="1" data-sash_id="1" leaf_id="1" origin="S" data-set_id="0" data-set_part_id="0"/>
<rect x="1900.500999999999749" y="1458.000999999999976" width="93" height="4" stroke="#171F29" stroke-width="0.1%" fill="#171F29" fill-opacity="1" stroke-opacity="1" sash_id="1" data-sash_id="1" leaf_id="1" origin="S" data-set_id="0" data-set_part_id="0"/>
<data-no-click>true</data-no-click>
</g>
<g code="ALU 2VTX">
<rect x="1900.500999999999749" y="100.000999999999976" width="93" height="4" stroke="#171F29" stroke-width="0.1%" fill="#171F29" fill-opacity="1" stroke-opacity="1" sash_id="1" data-sash_id="1" leaf_id="1" origin="S" data-set_id="0" data-set_part_id="0"/>
<rect x="1900.500999999999749" y="100.000999999999976" width="93" height="4" stroke="#171F29" stroke-width="0.1%" fill="#171F29" fill-opacity="1" stroke-opacity="1" sash_id="1" data-sash_id="1" leaf_id="1" origin="S" data-set_id="0" data-set_part_id="0"/>
<data-no-click>true</data-no-click>
</g>
<path d="M25.000999999999962 1458.000999999999976 L25.000999999999962 104.000999999999976 L128.001000000000033 104.000999999999976 L128.001000000000033 1458.000999999999976 L25.000999999999962 1458.000999999999976" style="stroke:#58606A;stroke-width:1;fill:#262E38" code="ALU 2VTX" sash_id="1" data-sash_id="1" leaf_id="1" data-leaf_id="1" origin="S" data-set_id="0" data-set_part_id="0"/>
<g code="ALU 2VTX">
<path d="M31.000999999999962 1480.000999999999976 L79.000999999999962 1480.000999999999976 L79.000999999999962 1480.000999999999976 A6 6 0 0,1 85.000999999999962 1486.000999999999976 L85.000999999999962 1500.000999999999976 L25.000999999999962 1500.000999999999976 L25.000999999999962 1486.000999999999976 L25.000999999999962 1486.000999999999976 A6 6 0 0,1 31.000999999999962 1480.000999999999976 L31.000999999999962 1480.000999999999976" stroke="#000000" stroke-width="0.2%" fill="#969696" fill-opacity="1" stroke-opacity="1" sash_id="1" data-sash_id="1" leaf_id="1" origin="S" data-set_id="0" data-set_part_id="0"/>
<rect x="45.000999999999962" y="1462.000999999999976" width="20" height="18" stroke="#000000" stroke-width="0.2%" fill="#969696" fill-opacity="1" stroke-opacity="1" sash_id="1" data-sash_id="1" leaf_id="1" origin="S" data-set_id="0" data-set_part_id="0"/>
<path d="M31.000999999999962 1480.000999999999976 L79.000999999999962 1480.000999999999976 L79.000999999999962 1480.000999999999976 A6 6 0 0,1 85.000999999999962 1486.000999999999976 L85.000999999999962 1500.000999999999976 L25.000999999999962 1500.000999999999976 L25.000999999999962 1486.000999999999976 L25.000999999999962 1486.000999999999976 A6 6 0 0,1 31.000999999999962 1480.000999999999976 L31.000999999999962 1480.000999999999976" stroke="#000000" stroke-width="0.2%" fill="#969696" fill-opacity="1" stroke-opacity="1" sash_id="1" data-sash_id="1" leaf_id="1" origin="S" data-set_id="0" data-set_part_id="0"/>
<rect x="45.000999999999962" y="1462.000999999999976" width="20" height="18" stroke="#000000" stroke-width="0.2%" fill="#969696" fill-opacity="1" stroke-opacity="1" sash_id="1" data-sash_id="1" leaf_id="1" origin="S" data-set_id="0" data-set_part_id="0"/>
<data-no-click>true</data-no-click>
</g>
<g code="ALU 2VTX">
<path d="M0.000999999999962 100.000999999999976 L0.000999999999962 60.000999999999976 L10.000999999999962 60.000999999999976 L73.205199999999962 70.259299999999939 L73.205193525412795 70.259339891191985 A20 20 0 0,1 90.000999999999962 90.000999999999976 L90.000999999999962 100.000999999999976 L0.000999999999962 100.000999999999976 L0.000999999999962 100.000999999999976" stroke="#000000" stroke-width="0.2%" fill="#262E38" fill-opacity="1" stroke-opacity="1" sash_id="1" data-sash_id="1" leaf_id="1" origin="S" data-set_id="0" data-set_part_id="0"/>
<path d="M0.000999999999962 100.000999999999976 L0.000999999999962 60.000999999999976 L10.000999999999962 60.000999999999976 L73.205199999999962 70.259299999999939 L73.205193525412795 70.259339891191985 A20 20 0 0,1 90.000999999999962 90.000999999999976 L90.000999999999962 100.000999999999976 L0.000999999999962 100.000999999999976 L0.000999999999962 100.000999999999976" stroke="#000000" stroke-width="0.2%" fill="#262E38" fill-opacity="1" stroke-opacity="1" sash_id="1" data-sash_id="1" leaf_id="1" origin="S" data-set_id="0" data-set_part_id="0"/>
<data-no-click>true</data-no-click>
</g>
<g code="ALU 2VTX">
<rect x="23.500999999999962" y="1458.000999999999976" width="106" height="4" stroke="#171F29" stroke-width="0.1%" fill="#171F29" fill-opacity="1" stroke-opacity="1" sash_id="1" data-sash_id="1" leaf_id="1" origin="S" data-set_id="0" data-set_part_id="0"/>
<rect x="23.500999999999962" y="1458.000999999999976" width="106" height="4" stroke="#171F29" stroke-width="0.1%" fill="#171F29" fill-opacity="1" stroke-opacity="1" sash_id="1" data-sash_id="1" leaf_id="1" origin="S" data-set_id="0" data-set_part_id="0"/>
<data-no-click>true</data-no-click>
</g>
<g code="ALU 2VTX">
<rect x="23.500999999999962" y="100.000999999999976" width="106" height="4" stroke="#171F29" stroke-width="0.1%" fill="#171F29" fill-opacity="1" stroke-opacity="1" sash_id="1" data-sash_id="1" leaf_id="1" origin="S" data-set_id="0" data-set_part_id="0"/>
<rect x="23.500999999999962" y="100.000999999999976" width="106" height="4" stroke="#171F29" stroke-width="0.1%" fill="#171F29" fill-opacity="1" stroke-opacity="1" sash_id="1" data-sash_id="1" leaf_id="1" origin="S" data-set_id="0" data-set_part_id="0"/>
<data-no-click>true</data-no-click>
</g>
<path d="M1975.500999999999976 1435.000999999999976 L1975.500999999999976 109.000999999999976 L2026.501000000000204 109.000999999999976 L2026.501000000000204 1435.000999999999976 L1975.500999999999976 1435.000999999999976" style="stroke:#58606A;stroke-width:1;fill:#262E38" code="ALU 2VTX" sash_id="1" data-sash_id="1" leaf_id="2" data-leaf_id="2" origin="S" data-set_id="0" data-set_part_id="0"/>
<g code="ALU 2VTX">
<rect x="1974.000999999999976" y="105.000999999999976" width="55" height="4" stroke="#171F29" stroke-width="0.1%" fill="#171F29" fill-opacity="1" stroke-opacity="1" sash_id="1" data-sash_id="1" leaf_id="2" origin="S" data-set_id="0" data-set_part_id="0"/>
<rect x="1974.000999999999976" y="105.000999999999976" width="55" height="4" stroke="#171F29" stroke-width="0.1%" fill="#171F29" fill-opacity="1" stroke-opacity="1" sash_id="1" data-sash_id="1" leaf_id="2" origin="S" data-set_id="0" data-set_part_id="0"/>
<data-no-click>true</data-no-click>
</g>
<path d="M4000.002000000000408 1500.001999999999953 L4000.002000000000408 0 L4400.002000000000408 0 L4400.002000000000408 1500.001999999999953 L4000.002000000000408 1500.001999999999953" style="stroke:#000000;stroke-width:1" fill-opacity="0" fill="none" code="ALU PORTAIL" leaf_id="0" data-leaf_id="0" origin="F" data-set_id="0" data-set_part_id="0"/>
<path d="M-400 1500.001999999999953 L-400 0 L0 0 L0 1500.001999999999953 L-400 1500.001999999999953" style="stroke:#000000;stroke-width:1" fill-opacity="0" fill="none" code="ALU PORTAIL" leaf_id="0" data-leaf_id="0" origin="F" data-set_id="0" data-set_part_id="0"/>
<path d="M0 1500.001999999999953 L0 100 L4000.002000000000408 100 L4000.002000000000408 1500.001999999999953 L0 1500.001999999999953" style="stroke:#000000;stroke-width:1" fill-opacity="0" fill="none" code="" leaf_id="0" data-leaf_id="0" origin="F" data-set_id="0" data-set_part_id="0"/>
<path d="M0.001 1500.000999999999976 L0.001 100.000999999999976 L4000.001000000000204 100.000999999999976 L4000.001000000000204 1500.000999999999976 L0.001 1500.000999999999976" style="stroke:#000000;stroke-width:1" fill-opacity="0" fill="none" stroke-dasharray="8" code="" leaf_id="0" data-leaf_id="0" origin="?" data-set_id="0" data-set_part_id="0"/>
<g code="ALU 2VTX">
<rect x="2020.500999999999976" y="1430.000999999999976" rx="90" ry="40" width="40" height="70" stroke="#000000" stroke-width="0.2%" fill="#808080" fill-opacity="1" stroke-opacity="1" sash_id="1" data-sash_id="1" leaf_id="2" origin="S" data-set_id="0" data-set_part_id="0"/>
<rect x="1935.500999999999976" y="1480.000999999999976" width="130" height="20" stroke="#000000" stroke-width="0.2%" fill="#000000" fill-opacity="1" stroke-opacity="1" sash_id="1" data-sash_id="1" leaf_id="2" origin="S" data-set_id="0" data-set_part_id="0"/>
<rect x="1935.500999999999976" y="1455.000999999999976" rx="90" ry="40" width="130" height="45" stroke="#000000" stroke-width="0.2%" fill="#000000" fill-opacity="1" stroke-opacity="1" sash_id="1" data-sash_id="1" leaf_id="2" origin="S" data-set_id="0" data-set_part_id="0"/>
<data-no-click>true</data-no-click>
</g>
<g code="ALU 2VTX" data-no-click="true"/>
<g code="ALU 2VTX">
<rect x="1812.000999999999976" y="403.000999999999976" rx="10" ry="10" width="120" height="20" stroke="#000000" stroke-width="0.1%" fill="#C8C8C8" fill-opacity="1" stroke-opacity="1" sash_id="1" data-sash_id="1" leaf_id="1" origin="S" data-set_id="0" data-set_part_id="0"/>
<rect x="1937.000999999999976" y="483.000999999999976" rx="10" ry="10" width="10" height="25" stroke="#000000" stroke-width="0.1%" fill="#C8C8C8" fill-opacity="1" stroke-opacity="1" sash_id="1" data-sash_id="1" leaf_id="1" origin="S" data-set_id="0" data-set_part_id="0"/>
<circle cx="1942.000999999999976" cy="483.000999999999976" r="9" stroke="#000000" stroke-width="0.1%" fill="#C8C8C8" fill-opacity="1" stroke-opacity="1" sash_id="1" data-sash_id="1" leaf_id="1" origin="S" data-set_id="0" data-set_part_id="0"/>
<data-no-click>true</data-no-click>
</g>
</g>
<g/>
</svg>