<svg version="1.1" baseProfile="full" xmlns="http://www.w3.org/2000/svg" xmlns:xlink="http://www.w3.org/1999/xlink" viewbox="-400 -0 4800.002000000000408 1500.001999999999953" winpro-url="http://www.winpro.be" winpro-info="software for windows and doors manufacturer" winpro-version="WinPro 10.6.0.5130" viewBox="0 0 3976.501 1500.001">
<defs>
<marker id="markerArrow1" markerWidth="13" markerHeight="13" refx="9" refy="6" orient="auto">
<path d="M2,2 L2,10 L10,6 Z" fill="#000000"/>
</marker>
<marker id="markerArrow2" markerWidth="13" markerHeight="13" refx="2" refy="6" orient="auto">
<path d="M10,2 L10,10 L2,6 Z" fill="#000000"/>
</marker>
</defs>
<g>
<path d="M127.001000000000005 1455.000999999999976 L127.001000000000005 1365.000999999999976 L1903.000999999999976 1365.000999999999976 L1903.000999999999976 1455.000999999999976 L127.001000000000005 1455.000999999999976" style="stroke:#58606A;stroke-width:1;fill:#262E38" code="ALU 2VTX" sash_id="1" data-sash_id="1" leaf_id="1" data-leaf_id="1" origin="S" data-set_id="0" data-set_part_id="0"/>
<path d="M127.001000000000005 204.000999999999976 L127.001000000000005 114.000999999999976 L1903.000999999999976 114.000999999999976 L1903.000999999999976 204.000999999999976 L127.001000000000005 204.000999999999976" style="stroke:#58606A;stroke-width:1;fill:#262E38" code="ALU 2VTX" sash_id="1" data-sash_id="1" leaf_id="1" data-leaf_id="1" origin="S" data-set_id="0" data-set_part_id="0"/>
<path d="M1902.000999999999749 1458.000999999999976 L1902.000999999999749 104.000999999999976 L1992.001000000000204 104.000999999999976 L1992.001000000000204 1458.000999999999976 L1902.000999999999749 1458.000999999999976" style="stroke:#58606A;stroke-width:1;fill:#262E38" code="ALU 2VTX" sash_id="1" data-sash_id="1" leaf_id="1" data-leaf_id="1" origin="S" data-set_id="0" data-set_part_id="0"/>
<path d="M25.000999999999962 1458.000999999999976 L25.000999999999962 104.000999999999976 L128.001000000000033 104.000999999999976 L128.001000000000033 1458.000999999999976 L25.000999999999962 1458.000999999999976" style="stroke:#58606A;stroke-width:1;fill:#262E38" code="ALU 2VTX" sash_id="1" data-sash_id="1" leaf_id="1" data-leaf_id="1" origin="S" data-set_id="0" data-set_part_id="0"/>
<path d="M112.001000000000005 1380.000999999999976 L112.001000000000005 189.000999999999976 L1918.000999999999976 189.000999999999976 L1918.000999999999976 1380.000999999999976 L112.001000000000005 1380.000999999999976" style="stroke:#000000;stroke-width:1" fill-opacity="0" fill="none" code="ALU PORTAIL" sash_id="1" data-sash_id="1" leaf_id="1" data-leaf_id="1" filling_id="1" data-filling_id="1" data-fillingTotal_id="1" origin="p" data-set_id="0" data-set_part_id="0"/>
<path d="M1917.000999999999976 1382.500999999999976 L113.001000000000005 1382.500999999999976 L113.001000000000005 1365.000999999999976 L1917.000999999999976 1365.000999999999976 L1917.000999999999976 1382.500999999999976" style="stroke:#58606A;stroke-width:1;fill:#2C343E" code="ALU PORTAIL" sash_id="1" data-sash_id="1" leaf_id="1" data-leaf_id="1" data-fillingTotal_id="1" origin="p" data-set_id="0" data-set_part_id="0"/>
<path d="M1920.500999999999976 204.000999999999976 L1920.500999999999976 1365.000999999999976 L1903.000999999999976 1365.000999999999976 L1903.000999999999976 204.000999999999976 L1920.500999999999976 204.000999999999976" style="stroke:#58606A;stroke-width:1;fill:#2C343E" code="ALU PORTAIL" sash_id="1" data-sash_id="1" leaf_id="1" data-leaf_id="1" data-fillingTotal_id="1" origin="p" data-set_id="0" data-set_part_id="0"/>
<path d="M113.001000000000005 186.500999999999976 L1917.000999999999976 186.500999999999976 L1917.000999999999976 204.000999999999976 L113.001000000000005 204.000999999999976 L113.001000000000005 186.500999999999976" style="stroke:#58606A;stroke-width:1;fill:#2C343E" code="ALU PORTAIL" sash_id="1" data-sash_id="1" leaf_id="1" data-leaf_id="1" data-fillingTotal_id="1" origin="p" data-set_id="0" data-set_part_id="0"/>
<path d="M109.501000000000005 1365.000999999999976 L109.501000000000005 204.000999999999976 L127.001000000000005 204.000999999999976 L127.001000000000005 1365.000999999999976 L109.501000000000005 1365.000999999999976" style="stroke:#58606A;stroke-width:1;fill:#2C343E" code="ALU PORTAIL" sash_id="1" data-sash_id="1" leaf_id="1" data-leaf_id="1" data-fillingTotal_id="1" origin="p" data-set_id="0" data-set_part_id="0"/>
<path d="M1903.000999999999976 1356.901000000000067 L127.001000000000005 1356.901000000000067 L127.001000000000005 1236.901000000000067 L1903.000999999999976 1236.901000000000067 L1903.000999999999976 1356.901000000000067" style="stroke:#58606A;stroke-width:1;fill:#2C343E" code="ALU PORTAIL" sash_id="1" data-sash_id="1" leaf_id="1" data-leaf_id="1" data-fillingTotal_id="1" origin="p" data-set_id="0" data-set_part_id="0"/>
<path d="M1903.000999999999976 1228.800999999999931 L127.001000000000005 1228.800999999999931 L127.001000000000005 1108.800999999999931 L1903.000999999999976 1108.800999999999931 L1903.000999999999976 1228.800999999999931" style="stroke:#58606A;stroke-width:1;fill:#2C343E" code="ALU PORTAIL" sash_id="1" data-sash_id="1" leaf_id="1" data-leaf_id="1" data-fillingTotal_id="1" origin="p" data-set_id="0" data-set_part_id="0"/>
<path d="M1903.000999999999976 1100.701000000000022 L127.001000000000005 1100.701000000000022 L127.001000000000005 980.701000000000022 L1903.000999999999976 980.701000000000022 L1903.000999999999976 1100.701000000000022" style="stroke:#58606A;stroke-width:1;fill:#2C343E" code="ALU PORTAIL" sash_id="1" data-sash_id="1" leaf_id="1" data-leaf_id="1" data-fillingTotal_id="1" origin="p" data-set_id="0" data-set_part_id="0"/>
<path d="M1903.000999999999976 972.600999999999999 L127.001000000000005 972.600999999999999 L127.001000000000005 852.600999999999999 L1903.000999999999976 852.600999999999999 L1903.000999999999976 972.600999999999999" style="stroke:#58606A;stroke-width:1;fill:#2C343E" code="ALU PORTAIL" sash_id="1" data-sash_id="1" leaf_id="1" data-leaf_id="1" data-fillingTotal_id="1" origin="p" data-set_id="0" data-set_part_id="0"/>
<path d="M1903.000999999999976 844.500999999999976 L127.001000000000005 844.500999999999976 L127.001000000000005 724.500999999999976 L1903.000999999999976 724.500999999999976 L1903.000999999999976 844.500999999999976" style="stroke:#58606A;stroke-width:1;fill:#2C343E" code="ALU PORTAIL" sash_id="1" data-sash_id="1" leaf_id="1" data-leaf_id="1" data-fillingTotal_id="1" origin="p" data-set_id="0" data-set_part_id="0"/>
<path d="M1903.000999999999976 716.400999999999954 L127.001000000000005 716.400999999999954 L127.001000000000005 596.400999999999954 L1903.000999999999976 596.400999999999954 L1903.000999999999976 716.400999999999954" style="stroke:#58606A;stroke-width:1;fill:#2C343E" code="ALU PORTAIL" sash_id="1" data-sash_id="1" leaf_id="1" data-leaf_id="1" data-fillingTotal_id="1" origin="p" data-set_id="0" data-set_part_id="0"/>
<path d="M1903.000999999999976 588.300999999999931 L127.001000000000005 588.300999999999931 L127.001000000000005 468.300999999999931 L1903.000999999999976 468.300999999999931 L1903.000999999999976 588.300999999999931" style="stroke:#58606A;stroke-width:1;fill:#2C343E" code="ALU PORTAIL" sash_id="1" data-sash_id="1" leaf_id="1" data-leaf_id="1" data-fillingTotal_id="1" origin="p" data-set_id="0" data-set_part_id="0"/>
<path d="M1903.000999999999976 460.201000000000022 L127.001000000000005 460.201000000000022 L127.001000000000005 340.201000000000022 L1903.000999999999976 340.201000000000022 L1903.000999999999976 460.201000000000022" style="stroke:#58606A;stroke-width:1;fill:#2C343E" code="ALU PORTAIL" sash_id="1" data-sash_id="1" leaf_id="1" data-leaf_id="1" data-fillingTotal_id="1" origin="p" data-set_id="0" data-set_part_id="0"/>
<path d="M1903.000999999999976 332.101000000000113 L127.001000000000005 332.101000000000113 L127.001000000000005 212.101000000000113 L1903.000999999999976 212.101000000000113 L1903.000999999999976 332.101000000000113" style="stroke:#58606A;stroke-width:1;fill:#2C343E" code="ALU PORTAIL" sash_id="1" data-sash_id="1" leaf_id="1" data-leaf_id="1" data-fillingTotal_id="1" origin="p" data-set_id="0" data-set_part_id="0"/>
<path d="M1903.000999999999976 231.271000000000186 L127.001000000000005 231.271000000000186 L127.001000000000005 212.101000000000113 L1903.000999999999976 212.101000000000113 L1903.000999999999976 231.271000000000186" style="stroke:#58606A;stroke-width:1;fill:#404852" code="ALU PORTAIL" sash_id="1" data-sash_id="1" leaf_id="1" data-leaf_id="1" data-fillingTotal_id="1" origin="p" data-set_id="0" data-set_part_id="0"/>
<path d="M1903.000999999999976 359.371000000000095 L127.001000000000005 359.371000000000095 L127.001000000000005 340.201000000000022 L1903.000999999999976 340.201000000000022 L1903.000999999999976 359.371000000000095" style="stroke:#58606A;stroke-width:1;fill:#404852" code="ALU PORTAIL" sash_id="1" data-sash_id="1" leaf_id="1" data-leaf_id="1" data-fillingTotal_id="1" origin="p" data-set_id="0" data-set_part_id="0"/>
<path d="M1903.000999999999976 487.47099999999989 L127.001000000000005 487.47099999999989 L127.001000000000005 468.300999999999931 L1903.000999999999976 468.300999999999931 L1903.000999999999976 487.47099999999989" style="stroke:#58606A;stroke-width:1;fill:#404852" code="ALU PORTAIL" sash_id="1" data-sash_id="1" leaf_id="1" data-leaf_id="1" data-fillingTotal_id="1" origin="p" data-set_id="0" data-set_part_id="0"/>
<path d="M1903.000999999999976 615.570999999999913 L127.001000000000005 615.570999999999913 L127.001000000000005 596.400999999999954 L1903.000999999999976 596.400999999999954 L1903.000999999999976 615.570999999999913" style="stroke:#58606A;stroke-width:1;fill:#404852" code="ALU PORTAIL" sash_id="1" data-sash_id="1" leaf_id="1" data-leaf_id="1" data-fillingTotal_id="1" origin="p" data-set_id="0" data-set_part_id="0"/>
<path d="M1903.000999999999976 743.670999999999935 L127.001000000000005 743.670999999999935 L127.001000000000005 724.500999999999976 L1903.000999999999976 724.500999999999976 L1903.000999999999976 743.670999999999935" style="stroke:#58606A;stroke-width:1;fill:#404852" code="ALU PORTAIL" sash_id="1" data-sash_id="1" leaf_id="1" data-leaf_id="1" data-fillingTotal_id="1" origin="p" data-set_id="0" data-set_part_id="0"/>
<path d="M1903.000999999999976 871.770999999999958 L127.001000000000005 871.770999999999958 L127.001000000000005 852.600999999999999 L1903.000999999999976 852.600999999999999 L1903.000999999999976 871.770999999999958" style="stroke:#58606A;stroke-width:1;fill:#404852" code="ALU PORTAIL" sash_id="1" data-sash_id="1" leaf_id="1" data-leaf_id="1" data-fillingTotal_id="1" origin="p" data-set_id="0" data-set_part_id="0"/>
<path d="M1903.000999999999976 999.871000000000095 L127.001000000000005 999.871000000000095 L127.001000000000005 980.701000000000022 L1903.000999999999976 980.701000000000022 L1903.000999999999976 999.871000000000095" style="stroke:#58606A;stroke-width:1;fill:#404852" code="ALU PORTAIL" sash_id="1" data-sash_id="1" leaf_id="1" data-leaf_id="1" data-fillingTotal_id="1" origin="p" data-set_id="0" data-set_part_id="0"/>
<path d="M1903.000999999999976 1127.971000000000004 L127.001000000000005 1127.971000000000004 L127.001000000000005 1108.800999999999931 L1903.000999999999976 1108.800999999999931 L1903.000999999999976 1127.971000000000004" style="stroke:#58606A;stroke-width:1;fill:#404852" code="ALU PORTAIL" sash_id="1" data-sash_id="1" leaf_id="1" data-leaf_id="1" data-fillingTotal_id="1" origin="p" data-set_id="0" data-set_part_id="0"/>
<path d="M1903.000999999999976 1256.07100000000014 L127.001000000000005 1256.07100000000014 L127.001000000000005 1236.901000000000067 L1903.000999999999976 1236.901000000000067 L1903.000999999999976 1256.07100000000014" style="stroke:#58606A;stroke-width:1;fill:#404852" code="ALU PORTAIL" sash_id="1" data-sash_id="1" leaf_id="1" data-leaf_id="1" data-fillingTotal_id="1" origin="p" data-set_id="0" data-set_part_id="0"/>
<path d="M1903.000999999999749 116.000999999999976 L1903.000999999999749 104.000999999999976 L1920.500999999999749 104.000999999999976 L1920.500999999999749 116.000999999999976 L1903.000999999999749 116.000999999999976" style="stroke:#58606A;stroke-width:1;fill:#262E38" code="ALU 2VTX" sash_id="1" data-sash_id="1" leaf_id="1" data-leaf_id="1" origin="S" data-set_id="0" data-set_part_id="0"/>
<path d="M1974.500999999999749 1458.000999999999976 L1974.500999999999749 1435.000999999999976 L1992.001000000000204 1435.000999999999976 L1992.001000000000204 1458.000999999999976 L1974.500999999999749 1458.000999999999976" style="stroke:#58606A;stroke-width:1;fill:#262E38" code="ALU 2VTX" sash_id="1" data-sash_id="1" leaf_id="1" data-leaf_id="1" origin="S" data-set_id="0" data-set_part_id="0"/>
<path d="M109.501000000000033 116.000999999999976 L109.501000000000033 104.000999999999976 L127.001000000000033 104.000999999999976 L127.001000000000033 116.000999999999976 L109.501000000000033 116.000999999999976" style="stroke:#58606A;stroke-width:1;fill:#262E38" code="ALU 2VTX" sash_id="1" data-sash_id="1" leaf_id="1" data-leaf_id="1" origin="S" data-set_id="0" data-set_part_id="0"/>
<path d="M25.000999999999962 1457.000999999999976 L25.000999999999962 105.000999999999976 L55.501000000000033 105.000999999999976 L55.501000000000033 1457.000999999999976 L25.000999999999962 1457.000999999999976" style="stroke:#58606A;stroke-width:1;fill:#262E38" code="ALU 2VTX" sash_id="1" data-sash_id="1" leaf_id="1" data-leaf_id="1" origin="S" data-set_id="0" data-set_part_id="0"/>
<path d="M127.001000000000005 1455.000999999999976 L127.001000000000005 1365.000999999999976 L1903.000999999999976 1365.000999999999976 L1903.000999999999976 1455.000999999999976 L127.001000000000005 1455.000999999999976" style="stroke:#58606A;stroke-width:1;fill:#262E38" code="ALU 2VTX" sash_id="1" data-sash_id="1" leaf_id="1" data-leaf_id="1" origin="S" data-set_id="0" data-set_part_id="0"/>
<path d="M127.001000000000005 204.000999999999976 L127.001000000000005 114.000999999999976 L1903.000999999999976 114.000999999999976 L1903.000999999999976 204.000999999999976 L127.001000000000005 204.000999999999976" style="stroke:#58606A;stroke-width:1;fill:#262E38" code="ALU 2VTX" sash_id="1" data-sash_id="1" leaf_id="1" data-leaf_id="1" origin="S" data-set_id="0" data-set_part_id="0"/>
<path d="M1902.000999999999749 1458.000999999999976 L1902.000999999999749 104.000999999999976 L1992.001000000000204 104.000999999999976 L1992.001000000000204 1458.000999999999976 L1902.000999999999749 1458.000999999999976" style="stroke:#58606A;stroke-width:1;fill:#262E38" code="ALU 2VTX" sash_id="1" data-sash_id="1" leaf_id="1" data-leaf_id="1" origin="S" data-set_id="0" data-set_part_id="0"/>
<g code="ALU 2VTX">
<rect x="1900.500999999999749" y="1458.000999999999976" width="93" height="4" stroke="#171F29" stroke-width="0.1%" fill="#171F29" fill-opacity="1" stroke-opacity="1" sash_id="1" data-sash_id="1" leaf_id="1" origin="S" data-set_id="0" data-set_part_id="0"/>
<rect x="1900.500999999999749" y="1458.000999999999976" width="93" height="4" stroke="#171F29" stroke-width="0.1%" fill="#171F29" fill-opacity="1" stroke-opacity="1" sash_id="1" data-sash_id="1" leaf_id="1" origin="S" data-set_id="0" data-set_part_id="0"/>
<data-no-click>true</data-no-click>
</g>
<g code="ALU 2VTX">
<rect x="1900.500999999999749" y="100.000999999999976" width="93" height="4" stroke="#171F29" stroke-width="0.1%" fill="#171F29" fill-opacity="1" stroke-opacity="1" sash_id="1" data-sash_id="1" leaf_id="1" origin="S" data-set_id="0" data-set_part_id="0"/>
<rect x="1900.500999999999749" y="100.000999999999976" width="93" height="4" stroke="#171F29" stroke-width="0.1%" fill="#171F29" fill-opacity="1" stroke-opacity="1" sash_id="1" data-sash_id="1" leaf_id="1" origin="S" data-set_id="0" data-set_part_id="0"/>
<data-no-click>true</data-no-click>
</g>
<path d="M25.000999999999962 1458.000999999999976 L25.000999999999962 104.000999999999976 L128.001000000000033 104.000999999999976 L128.001000000000033 1458.000999999999976 L25.000999999999962 1458.000999999999976" style="stroke:#58606A;stroke-width:1;fill:#262E38" code="ALU 2VTX" sash_id="1" data-sash_id="1" leaf_id="1" data-leaf_id="1" origin="S" data-set_id="0" data-set_part_id="0"/>
<g code="ALU 2VTX">
<path d="M85.000999999999962 1486.000999999999976 A6 6 0  0,0 79.000999999999962 1480.000999999999976" stroke="#000000" stroke-width="0.2%" fill="none" fill-opacity="0" stroke-opacity="1"/>
<path d="M31.000999999999962 1480.000999999999976 A6 6 0  0,0 25.000999999999962 1486.000999999999976" stroke="#000000" stroke-width="0.2%" fill="none" fill-opacity="0" stroke-opacity="1"/>
<path d="M0.000999999999962 1462.000999999999976 L31.000999999999962 1480.000999999999976 L25.000999999999962 1500.000999999999976 L85.000999999999962 1500.000999999999976 L85.000999999999962 1486.000999999999976 L0.000999999999962 1462.000999999999976" stroke="#000000" stroke-width="0.2%" fill="#808080" fill-opacity="1" stroke-opacity="1" sash_id="1" data-sash_id="1" leaf_id="1" origin="S" data-set_id="0" data-set_part_id="0"/>
<rect x="45.000999999999962" y="1480.000999999999976" width="20" height="-18" stroke="#000000" stroke-width="0.2%" fill="#808080" fill-opacity="1" stroke-opacity="1" sash_id="1" data-sash_id="1" leaf_id="1" origin="S" data-set_id="0" data-set_part_id="0"/>
<path d="M85.000999999999962 1486.000999999999976 A6 6 0  0,0 79.000999999999962 1480.000999999999976" stroke="#000000" stroke-width="0.2%" fill="none" fill-opacity="0" stroke-opacity="1"/>
<path d="M31.000999999999962 1480.000999999999976 A6 6 0  0,0 25.000999999999962 1486.000999999999976" stroke="#000000" stroke-width="0.2%" fill="none" fill-opacity="0" stroke-opacity="1"/>
<path d="M85.000999999999962 1486.000999999999976 L31.000999999999962 1480.000999999999976 L25.000999999999962 1500.000999999999976 L85.000999999999962 1500.000999999999976 L85.000999999999962 1486.000999999999976 L85.000999999999962 1486.000999999999976" stroke="#000000" stroke-width="0.2%" fill="#808080" fill-opacity="1" stroke-opacity="1" sash_id="1" data-sash_id="1" leaf_id="1" origin="S" data-set_id="0" data-set_part_id="0"/>
<rect x="45.000999999999962" y="1480.000999999999976" width="20" height="-18" stroke="#000000" stroke-width="0.2%" fill="#808080" fill-opacity="1" stroke-opacity="1" sash_id="1" data-sash_id="1" leaf_id="1" origin="S" data-set_id="0" data-set_part_id="0"/>
<data-no-click>true</data-no-click>
</g>
<g code="ALU 2VTX">
<path d="M0.000999999999962 100.000999999999976 L0.000999999999962 60.000999999999976 L90.000999999999962 100.000999999999976 L0.000999999999962 100.000999999999976 L0.000999999999962 100.000999999999976" stroke="#000000" stroke-width="0.2%" fill="#262E38" fill-opacity="1" stroke-opacity="1" sash_id="1" data-sash_id="1" leaf_id="1" origin="S" data-set_id="0" data-set_part_id="0"/>
<path d="M0.000999999999962 100.000999999999976 L0.000999999999962 60.000999999999976 L90.000999999999962 100.000999999999976 L0.000999999999962 100.000999999999976 L0.000999999999962 100.000999999999976" stroke="#000000" stroke-width="0.2%" fill="#262E38" fill-opacity="1" stroke-opacity="1" sash_id="1" data-sash_id="1" leaf_id="1" origin="S" data-set_id="0" data-set_part_id="0"/>
<data-no-click>true</data-no-click>
</g>
<g code="ALU 2VTX">
<rect x="23.500999999999962" y="1458.000999999999976" width="106" height="4" stroke="#171F29" stroke-width="0.1%" fill="#171F29" fill-opacity="1" stroke-opacity="1" sash_id="1" data-sash_id="1" leaf_id="1" origin="S" data-set_id="0" data-set_part_id="0"/>
<rect x="23.500999999999962" y="1458.000999999999976" width="106" height="4" stroke="#171F29" stroke-width="0.1%" fill="#171F29" fill-opacity="1" stroke-opacity="1" sash_id="1" data-sash_id="1" leaf_id="1" origin="S" data-set_id="0" data-set_part_id="0"/>
<data-no-click>true</data-no-click>
</g>
<g code="ALU 2VTX">
<rect x="23.500999999999962" y="100.000999999999976" width="106" height="4" stroke="#171F29" stroke-width="0.1%" fill="#171F29" fill-opacity="1" stroke-opacity="1" sash_id="1" data-sash_id="1" leaf_id="1" origin="S" data-set_id="0" data-set_part_id="0"/>
<rect x="23.500999999999962" y="100.000999999999976" width="106" height="4" stroke="#171F29" stroke-width="0.1%" fill="#171F29" fill-opacity="1" stroke-opacity="1" sash_id="1" data-sash_id="1" leaf_id="1" origin="S" data-set_id="0" data-set_part_id="0"/>
<data-no-click>true</data-no-click>
</g>
<path d="M2097.001000000000204 1455.000999999999976 L2097.001000000000204 1365.000999999999976 L3873.001000000000204 1365.000999999999976 L3873.001000000000204 1455.000999999999976 L2097.001000000000204 1455.000999999999976" style="stroke:#58606A;stroke-width:1;fill:#262E38" code="ALU 2VTX" sash_id="1" data-sash_id="1" leaf_id="2" data-leaf_id="2" origin="S" data-set_id="0" data-set_part_id="0"/>
<path d="M2097.001000000000204 204.000999999999976 L2097.001000000000204 114.000999999999976 L3873.001000000000204 114.000999999999976 L3873.001000000000204 204.000999999999976 L2097.001000000000204 204.000999999999976" style="stroke:#58606A;stroke-width:1;fill:#262E38" code="ALU 2VTX" sash_id="1" data-sash_id="1" leaf_id="2" data-leaf_id="2" origin="S" data-set_id="0" data-set_part_id="0"/>
<path d="M3872.001000000000204 1458.000999999999976 L3872.001000000000204 104.000999999999976 L3975.001000000000204 104.000999999999976 L3975.001000000000204 1458.000999999999976 L3872.001000000000204 1458.000999999999976" style="stroke:#58606A;stroke-width:1;fill:#262E38" code="ALU 2VTX" sash_id="1" data-sash_id="1" leaf_id="2" data-leaf_id="2" origin="S" data-set_id="0" data-set_part_id="0"/>
<path d="M2008.000999999999976 1458.000999999999976 L2008.000999999999976 104.000999999999976 L2098.001000000000204 104.000999999999976 L2098.001000000000204 1458.000999999999976 L2008.000999999999976 1458.000999999999976" style="stroke:#58606A;stroke-width:1;fill:#262E38" code="ALU 2VTX" sash_id="1" data-sash_id="1" leaf_id="2" data-leaf_id="2" origin="S" data-set_id="0" data-set_part_id="0"/>
<path d="M2082.001000000000204 1380.000999999999976 L2082.001000000000204 189.000999999999976 L3888.001000000000204 189.000999999999976 L3888.001000000000204 1380.000999999999976 L2082.001000000000204 1380.000999999999976" style="stroke:#000000;stroke-width:1" fill-opacity="0" fill="none" code="ALU PORTAIL" sash_id="1" data-sash_id="1" leaf_id="2" data-leaf_id="2" filling_id="1" data-filling_id="1" data-fillingTotal_id="2" origin="p" data-set_id="0" data-set_part_id="0"/>
<path d="M3887.001000000000204 1382.500999999999976 L2083.001000000000204 1382.500999999999976 L2083.001000000000204 1365.000999999999976 L3887.001000000000204 1365.000999999999976 L3887.001000000000204 1382.500999999999976" style="stroke:#58606A;stroke-width:1;fill:#2C343E" code="ALU PORTAIL" sash_id="1" data-sash_id="1" leaf_id="2" data-leaf_id="2" data-fillingTotal_id="2" origin="p" data-set_id="0" data-set_part_id="0"/>
<path d="M3890.501000000000204 204.000999999999976 L3890.501000000000204 1365.000999999999976 L3873.001000000000204 1365.000999999999976 L3873.001000000000204 204.000999999999976 L3890.501000000000204 204.000999999999976" style="stroke:#58606A;stroke-width:1;fill:#2C343E" code="ALU PORTAIL" sash_id="1" data-sash_id="1" leaf_id="2" data-leaf_id="2" data-fillingTotal_id="2" origin="p" data-set_id="0" data-set_part_id="0"/>
<path d="M2083.001000000000204 186.500999999999976 L3887.001000000000204 186.500999999999976 L3887.001000000000204 204.000999999999976 L2083.001000000000204 204.000999999999976 L2083.001000000000204 186.500999999999976" style="stroke:#58606A;stroke-width:1;fill:#2C343E" code="ALU PORTAIL" sash_id="1" data-sash_id="1" leaf_id="2" data-leaf_id="2" data-fillingTotal_id="2" origin="p" data-set_id="0" data-set_part_id="0"/>
<path d="M2079.501000000000204 1365.000999999999976 L2079.501000000000204 204.000999999999976 L2097.001000000000204 204.000999999999976 L2097.001000000000204 1365.000999999999976 L2079.501000000000204 1365.000999999999976" style="stroke:#58606A;stroke-width:1;fill:#2C343E" code="ALU PORTAIL" sash_id="1" data-sash_id="1" leaf_id="2" data-leaf_id="2" data-fillingTotal_id="2" origin="p" data-set_id="0" data-set_part_id="0"/>
<path d="M3873.001000000000204 1356.901000000000067 L2097.001000000000204 1356.901000000000067 L2097.001000000000204 1236.901000000000067 L3873.001000000000204 1236.901000000000067 L3873.001000000000204 1356.901000000000067" style="stroke:#58606A;stroke-width:1;fill:#2C343E" code="ALU PORTAIL" sash_id="1" data-sash_id="1" leaf_id="2" data-leaf_id="2" data-fillingTotal_id="2" origin="p" data-set_id="0" data-set_part_id="0"/>
<path d="M3873.001000000000204 1228.800999999999931 L2097.001000000000204 1228.800999999999931 L2097.001000000000204 1108.800999999999931 L3873.001000000000204 1108.800999999999931 L3873.001000000000204 1228.800999999999931" style="stroke:#58606A;stroke-width:1;fill:#2C343E" code="ALU PORTAIL" sash_id="1" data-sash_id="1" leaf_id="2" data-leaf_id="2" data-fillingTotal_id="2" origin="p" data-set_id="0" data-set_part_id="0"/>
<path d="M3873.001000000000204 1100.701000000000022 L2097.001000000000204 1100.701000000000022 L2097.001000000000204 980.701000000000022 L3873.001000000000204 980.701000000000022 L3873.001000000000204 1100.701000000000022" style="stroke:#58606A;stroke-width:1;fill:#2C343E" code="ALU PORTAIL" sash_id="1" data-sash_id="1" leaf_id="2" data-leaf_id="2" data-fillingTotal_id="2" origin="p" data-set_id="0" data-set_part_id="0"/>
<path d="M3873.001000000000204 972.600999999999999 L2097.001000000000204 972.600999999999999 L2097.001000000000204 852.600999999999999 L3873.001000000000204 852.600999999999999 L3873.001000000000204 972.600999999999999" style="stroke:#58606A;stroke-width:1;fill:#2C343E" code="ALU PORTAIL" sash_id="1" data-sash_id="1" leaf_id="2" data-leaf_id="2" data-fillingTotal_id="2" origin="p" data-set_id="0" data-set_part_id="0"/>
<path d="M3873.001000000000204 844.500999999999976 L2097.001000000000204 844.500999999999976 L2097.001000000000204 724.500999999999976 L3873.001000000000204 724.500999999999976 L3873.001000000000204 844.500999999999976" style="stroke:#58606A;stroke-width:1;fill:#2C343E" code="ALU PORTAIL" sash_id="1" data-sash_id="1" leaf_id="2" data-leaf_id="2" data-fillingTotal_id="2" origin="p" data-set_id="0" data-set_part_id="0"/>
<path d="M3873.001000000000204 716.400999999999954 L2097.001000000000204 716.400999999999954 L2097.001000000000204 596.400999999999954 L3873.001000000000204 596.400999999999954 L3873.001000000000204 716.400999999999954" style="stroke:#58606A;stroke-width:1;fill:#2C343E" code="ALU PORTAIL" sash_id="1" data-sash_id="1" leaf_id="2" data-leaf_id="2" data-fillingTotal_id="2" origin="p" data-set_id="0" data-set_part_id="0"/>
<path d="M3873.001000000000204 588.300999999999931 L2097.001000000000204 588.300999999999931 L2097.001000000000204 468.300999999999931 L3873.001000000000204 468.300999999999931 L3873.001000000000204 588.300999999999931" style="stroke:#58606A;stroke-width:1;fill:#2C343E" code="ALU PORTAIL" sash_id="1" data-sash_id="1" leaf_id="2" data-leaf_id="2" data-fillingTotal_id="2" origin="p" data-set_id="0" data-set_part_id="0"/>
<path d="M3873.001000000000204 460.201000000000022 L2097.001000000000204 460.201000000000022 L2097.001000000000204 340.201000000000022 L3873.001000000000204 340.201000000000022 L3873.001000000000204 460.201000000000022" style="stroke:#58606A;stroke-width:1;fill:#2C343E" code="ALU PORTAIL" sash_id="1" data-sash_id="1" leaf_id="2" data-leaf_id="2" data-fillingTotal_id="2" origin="p" data-set_id="0" data-set_part_id="0"/>
<path d="M3873.001000000000204 332.101000000000113 L2097.001000000000204 332.101000000000113 L2097.001000000000204 212.101000000000113 L3873.001000000000204 212.101000000000113 L3873.001000000000204 332.101000000000113" style="stroke:#58606A;stroke-width:1;fill:#2C343E" code="ALU PORTAIL" sash_id="1" data-sash_id="1" leaf_id="2" data-leaf_id="2" data-fillingTotal_id="2" origin="p" data-set_id="0" data-set_part_id="0"/>
<path d="M3873.001000000000204 231.271000000000186 L2097.001000000000204 231.271000000000186 L2097.001000000000204 212.101000000000113 L3873.001000000000204 212.101000000000113 L3873.001000000000204 231.271000000000186" style="stroke:#58606A;stroke-width:1;fill:#404852" code="ALU PORTAIL" sash_id="1" data-sash_id="1" leaf_id="2" data-leaf_id="2" data-fillingTotal_id="2" origin="p" data-set_id="0" data-set_part_id="0"/>
<path d="M3873.001000000000204 359.371000000000095 L2097.001000000000204 359.371000000000095 L2097.001000000000204 340.201000000000022 L3873.001000000000204 340.201000000000022 L3873.001000000000204 359.371000000000095" style="stroke:#58606A;stroke-width:1;fill:#404852" code="ALU PORTAIL" sash_id="1" data-sash_id="1" leaf_id="2" data-leaf_id="2" data-fillingTotal_id="2" origin="p" data-set_id="0" data-set_part_id="0"/>
<path d="M3873.001000000000204 487.47099999999989 L2097.001000000000204 487.47099999999989 L2097.001000000000204 468.300999999999931 L3873.001000000000204 468.300999999999931 L3873.001000000000204 487.47099999999989" style="stroke:#58606A;stroke-width:1;fill:#404852" code="ALU PORTAIL" sash_id="1" data-sash_id="1" leaf_id="2" data-leaf_id="2" data-fillingTotal_id="2" origin="p" data-set_id="0" data-set_part_id="0"/>
<path d="M3873.001000000000204 615.570999999999913 L2097.001000000000204 615.570999999999913 L2097.001000000000204 596.400999999999954 L3873.001000000000204 596.400999999999954 L3873.001000000000204 615.570999999999913" style="stroke:#58606A;stroke-width:1;fill:#404852" code="ALU PORTAIL" sash_id="1" data-sash_id="1" leaf_id="2" data-leaf_id="2" data-fillingTotal_id="2" origin="p" data-set_id="0" data-set_part_id="0"/>
<path d="M3873.001000000000204 743.670999999999935 L2097.001000000000204 743.670999999999935 L2097.001000000000204 724.500999999999976 L3873.001000000000204 724.500999999999976 L3873.001000000000204 743.670999999999935" style="stroke:#58606A;stroke-width:1;fill:#404852" code="ALU PORTAIL" sash_id="1" data-sash_id="1" leaf_id="2" data-leaf_id="2" data-fillingTotal_id="2" origin="p" data-set_id="0" data-set_part_id="0"/>
<path d="M3873.001000000000204 871.770999999999958 L2097.001000000000204 871.770999999999958 L2097.001000000000204 852.600999999999999 L3873.001000000000204 852.600999999999999 L3873.001000000000204 871.770999999999958" style="stroke:#58606A;stroke-width:1;fill:#404852" code="ALU PORTAIL" sash_id="1" data-sash_id="1" leaf_id="2" data-leaf_id="2" data-fillingTotal_id="2" origin="p" data-set_id="0" data-set_part_id="0"/>
<path d="M3873.001000000000204 999.871000000000095 L2097.001000000000204 999.871000000000095 L2097.001000000000204 980.701000000000022 L3873.001000000000204 980.701000000000022 L3873.001000000000204 999.871000000000095" style="stroke:#58606A;stroke-width:1;fill:#404852" code="ALU PORTAIL" sash_id="1" data-sash_id="1" leaf_id="2" data-leaf_id="2" data-fillingTotal_id="2" origin="p" data-set_id="0" data-set_part_id="0"/>
<path d="M3873.001000000000204 1127.971000000000004 L2097.001000000000204 1127.971000000000004 L2097.001000000000204 1108.800999999999931 L3873.001000000000204 1108.800999999999931 L3873.001000000000204 1127.971000000000004" style="stroke:#58606A;stroke-width:1;fill:#404852" code="ALU PORTAIL" sash_id="1" data-sash_id="1" leaf_id="2" data-leaf_id="2" data-fillingTotal_id="2" origin="p" data-set_id="0" data-set_part_id="0"/>
<path d="M3873.001000000000204 1256.07100000000014 L2097.001000000000204 1256.07100000000014 L2097.001000000000204 1236.901000000000067 L3873.001000000000204 1236.901000000000067 L3873.001000000000204 1256.07100000000014" style="stroke:#58606A;stroke-width:1;fill:#404852" code="ALU PORTAIL" sash_id="1" data-sash_id="1" leaf_id="2" data-leaf_id="2" data-fillingTotal_id="2" origin="p" data-set_id="0" data-set_part_id="0"/>
<path d="M3873.001000000000204 116.000999999999976 L3873.001000000000204 104.000999999999976 L3890.501000000000204 104.000999999999976 L3890.501000000000204 116.000999999999976 L3873.001000000000204 116.000999999999976" style="stroke:#58606A;stroke-width:1;fill:#262E38" code="ALU 2VTX" sash_id="1" data-sash_id="1" leaf_id="2" data-leaf_id="2" origin="S" data-set_id="0" data-set_part_id="0"/>
<path d="M2079.501000000000204 116.000999999999976 L2079.501000000000204 104.000999999999976 L2097.001000000000204 104.000999999999976 L2097.001000000000204 116.000999999999976 L2079.501000000000204 116.000999999999976" style="stroke:#58606A;stroke-width:1;fill:#262E38" code="ALU 2VTX" sash_id="1" data-sash_id="1" leaf_id="2" data-leaf_id="2" origin="S" data-set_id="0" data-set_part_id="0"/>
<path d="M2008.000999999999976 1458.000999999999976 L2008.000999999999976 104.000999999999976 L2026.501000000000204 104.000999999999976 L2026.501000000000204 1458.000999999999976 L2008.000999999999976 1458.000999999999976" style="stroke:#58606A;stroke-width:1;fill:#262E38" code="ALU 2VTX" sash_id="1" data-sash_id="1" leaf_id="2" data-leaf_id="2" origin="S" data-set_id="0" data-set_part_id="0"/>
<path d="M3944.501000000000204 1457.000999999999976 L3944.501000000000204 105.000999999999976 L3975.001000000000204 105.000999999999976 L3975.001000000000204 1457.000999999999976 L3944.501000000000204 1457.000999999999976" style="stroke:#58606A;stroke-width:1;fill:#262E38" code="ALU 2VTX" sash_id="1" data-sash_id="1" leaf_id="2" data-leaf_id="2" origin="S" data-set_id="0" data-set_part_id="0"/>
<path d="M2097.001000000000204 1455.000999999999976 L2097.001000000000204 1365.000999999999976 L3873.001000000000204 1365.000999999999976 L3873.001000000000204 1455.000999999999976 L2097.001000000000204 1455.000999999999976" style="stroke:#58606A;stroke-width:1;fill:#262E38" code="ALU 2VTX" sash_id="1" data-sash_id="1" leaf_id="2" data-leaf_id="2" origin="S" data-set_id="0" data-set_part_id="0"/>
<path d="M2097.001000000000204 204.000999999999976 L2097.001000000000204 114.000999999999976 L3873.001000000000204 114.000999999999976 L3873.001000000000204 204.000999999999976 L2097.001000000000204 204.000999999999976" style="stroke:#58606A;stroke-width:1;fill:#262E38" code="ALU 2VTX" sash_id="1" data-sash_id="1" leaf_id="2" data-leaf_id="2" origin="S" data-set_id="0" data-set_part_id="0"/>
<path d="M3872.001000000000204 1458.000999999999976 L3872.001000000000204 104.000999999999976 L3975.001000000000204 104.000999999999976 L3975.001000000000204 1458.000999999999976 L3872.001000000000204 1458.000999999999976" style="stroke:#58606A;stroke-width:1;fill:#262E38" code="ALU 2VTX" sash_id="1" data-sash_id="1" leaf_id="2" data-leaf_id="2" origin="S" data-set_id="0" data-set_part_id="0"/>
<g code="ALU 2VTX">
<path d="M3975.001000000000204 1486.000999999999976 A6 6 0  0,0 3969.001000000000204 1480.000999999999976" stroke="#000000" stroke-width="0.2%" fill="none" fill-opacity="0" stroke-opacity="1"/>
<path d="M3921.001000000000204 1480.000999999999976 A6 6 0  0,0 3915.001000000000204 1486.000999999999976" stroke="#000000" stroke-width="0.2%" fill="none" fill-opacity="0" stroke-opacity="1"/>
<path d="M4000.001000000000204 1462.000999999999976 L3921.001000000000204 1480.000999999999976 L3915.001000000000204 1500.000999999999976 L3975.001000000000204 1500.000999999999976 L3975.001000000000204 1486.000999999999976 L4000.001000000000204 1462.000999999999976" stroke="#000000" stroke-width="0.2%" fill="#808080" fill-opacity="1" stroke-opacity="1" sash_id="1" data-sash_id="1" leaf_id="2" origin="S" data-set_id="0" data-set_part_id="0"/>
<rect x="3935.001000000000204" y="1480.000999999999976" width="20" height="-18" stroke="#000000" stroke-width="0.2%" fill="#808080" fill-opacity="1" stroke-opacity="1" sash_id="1" data-sash_id="1" leaf_id="2" origin="S" data-set_id="0" data-set_part_id="0"/>
<path d="M3975.001000000000204 1486.000999999999976 A6 6 0  0,0 3969.001000000000204 1480.000999999999976" stroke="#000000" stroke-width="0.2%" fill="none" fill-opacity="0" stroke-opacity="1"/>
<path d="M3921.001000000000204 1480.000999999999976 A6 6 0  0,0 3915.001000000000204 1486.000999999999976" stroke="#000000" stroke-width="0.2%" fill="none" fill-opacity="0" stroke-opacity="1"/>
<path d="M3975.001000000000204 1486.000999999999976 L3921.001000000000204 1480.000999999999976 L3915.001000000000204 1500.000999999999976 L3975.001000000000204 1500.000999999999976 L3975.001000000000204 1486.000999999999976 L3975.001000000000204 1486.000999999999976" stroke="#000000" stroke-width="0.2%" fill="#808080" fill-opacity="1" stroke-opacity="1" sash_id="1" data-sash_id="1" leaf_id="2" origin="S" data-set_id="0" data-set_part_id="0"/>
<rect x="3935.001000000000204" y="1480.000999999999976" width="20" height="-18" stroke="#000000" stroke-width="0.2%" fill="#808080" fill-opacity="1" stroke-opacity="1" sash_id="1" data-sash_id="1" leaf_id="2" origin="S" data-set_id="0" data-set_part_id="0"/>
<data-no-click>true</data-no-click>
</g>
<g code="ALU 2VTX">
<path d="M4000.001000000000204 100.000999999999976 L4000.001000000000204 60.000999999999976 L3910.001000000000204 100.000999999999976 L4000.001000000000204 100.000999999999976 L4000.001000000000204 100.000999999999976" stroke="#000000" stroke-width="0.2%" fill="#262E38" fill-opacity="1" stroke-opacity="1" sash_id="1" data-sash_id="1" leaf_id="2" origin="S" data-set_id="0" data-set_part_id="0"/>
<path d="M4000.001000000000204 100.000999999999976 L4000.001000000000204 60.000999999999976 L3910.001000000000204 100.000999999999976 L4000.001000000000204 100.000999999999976 L4000.001000000000204 100.000999999999976" stroke="#000000" stroke-width="0.2%" fill="#262E38" fill-opacity="1" stroke-opacity="1" sash_id="1" data-sash_id="1" leaf_id="2" origin="S" data-set_id="0" data-set_part_id="0"/>
<data-no-click>true</data-no-click>
</g>
<g code="ALU 2VTX">
<rect x="3870.501000000000204" y="1458.000999999999976" width="106" height="4" stroke="#171F29" stroke-width="0.1%" fill="#171F29" fill-opacity="1" stroke-opacity="1" sash_id="1" data-sash_id="1" leaf_id="2" origin="S" data-set_id="0" data-set_part_id="0"/>
<rect x="3870.501000000000204" y="1458.000999999999976" width="106" height="4" stroke="#171F29" stroke-width="0.1%" fill="#171F29" fill-opacity="1" stroke-opacity="1" sash_id="1" data-sash_id="1" leaf_id="2" origin="S" data-set_id="0" data-set_part_id="0"/>
<data-no-click>true</data-no-click>
</g>
<g code="ALU 2VTX">
<rect x="3870.501000000000204" y="100.000999999999976" width="106" height="4" stroke="#171F29" stroke-width="0.1%" fill="#171F29" fill-opacity="1" stroke-opacity="1" sash_id="1" data-sash_id="1" leaf_id="2" origin="S" data-set_id="0" data-set_part_id="0"/>
<rect x="3870.501000000000204" y="100.000999999999976" width="106" height="4" stroke="#171F29" stroke-width="0.1%" fill="#171F29" fill-opacity="1" stroke-opacity="1" sash_id="1" data-sash_id="1" leaf_id="2" origin="S" data-set_id="0" data-set_part_id="0"/>
<data-no-click>true</data-no-click>
</g>
<path d="M2008.000999999999976 1458.000999999999976 L2008.000999999999976 104.000999999999976 L2098.001000000000204 104.000999999999976 L2098.001000000000204 1458.000999999999976 L2008.000999999999976 1458.000999999999976" style="stroke:#58606A;stroke-width:1;fill:#262E38" code="ALU 2VTX" sash_id="1" data-sash_id="1" leaf_id="2" data-leaf_id="2" origin="S" data-set_id="0" data-set_part_id="0"/>
<g code="ALU 2VTX">
<rect x="2006.500999999999976" y="1458.000999999999976" width="93" height="4" stroke="#171F29" stroke-width="0.1%" fill="#171F29" fill-opacity="1" stroke-opacity="1" sash_id="1" data-sash_id="1" leaf_id="2" origin="S" data-set_id="0" data-set_part_id="0"/>
<rect x="2006.500999999999976" y="1458.000999999999976" width="93" height="4" stroke="#171F29" stroke-width="0.1%" fill="#171F29" fill-opacity="1" stroke-opacity="1" sash_id="1" data-sash_id="1" leaf_id="2" origin="S" data-set_id="0" data-set_part_id="0"/>
<data-no-click>true</data-no-click>
</g>
<g code="ALU 2VTX">
<rect x="2006.500999999999976" y="100.000999999999976" width="93" height="4" stroke="#171F29" stroke-width="0.1%" fill="#171F29" fill-opacity="1" stroke-opacity="1" sash_id="1" data-sash_id="1" leaf_id="2" origin="S" data-set_id="0" data-set_part_id="0"/>
<rect x="2006.500999999999976" y="100.000999999999976" width="93" height="4" stroke="#171F29" stroke-width="0.1%" fill="#171F29" fill-opacity="1" stroke-opacity="1" sash_id="1" data-sash_id="1" leaf_id="2" origin="S" data-set_id="0" data-set_part_id="0"/>
<data-no-click>true</data-no-click>
</g>
<path d="M1973.500999999999749 1435.000999999999976 L1973.500999999999749 109.000999999999976 L2024.501000000000204 109.000999999999976 L2024.501000000000204 1435.000999999999976 L1973.500999999999749 1435.000999999999976" style="stroke:#58606A;stroke-width:1;fill:#262E38" code="ALU 2VTX" sash_id="1" data-sash_id="1" leaf_id="1" data-leaf_id="1" origin="S" data-set_id="0" data-set_part_id="0"/>
<g code="ALU 2VTX">
<rect x="1972.000999999999749" y="105.000999999999976" width="55" height="4" stroke="#171F29" stroke-width="0.1%" fill="#171F29" fill-opacity="1" stroke-opacity="1" sash_id="1" data-sash_id="1" leaf_id="1" origin="S" data-set_id="0" data-set_part_id="0"/>
<rect x="1972.000999999999749" y="105.000999999999976" width="55" height="4" stroke="#171F29" stroke-width="0.1%" fill="#171F29" fill-opacity="1" stroke-opacity="1" sash_id="1" data-sash_id="1" leaf_id="1" origin="S" data-set_id="0" data-set_part_id="0"/>
<data-no-click>true</data-no-click>
</g>
<path d="M4000.002000000000408 1500.001999999999953 L4000.002000000000408 0 L4400.002000000000408 0 L4400.002000000000408 1500.001999999999953 L4000.002000000000408 1500.001999999999953" style="stroke:#000000;stroke-width:1" fill-opacity="0" fill="none" code="ALU PORTAIL" leaf_id="0" data-leaf_id="0" origin="F" data-set_id="0" data-set_part_id="0"/>
<path d="M-400 1500.001999999999953 L-400 0 L0 0 L0 1500.001999999999953 L-400 1500.001999999999953" style="stroke:#000000;stroke-width:1" fill-opacity="0" fill="none" code="ALU PORTAIL" leaf_id="0" data-leaf_id="0" origin="F" data-set_id="0" data-set_part_id="0"/>
<path d="M0 1500.001999999999953 L0 100 L4000.002000000000408 100 L4000.002000000000408 1500.001999999999953 L0 1500.001999999999953" style="stroke:#000000;stroke-width:1" fill-opacity="0" fill="none" code="" leaf_id="0" data-leaf_id="0" origin="F" data-set_id="0" data-set_part_id="0"/>
<path d="M0.001 1500.000999999999976 L0.001 100.000999999999976 L4000.001000000000204 100.000999999999976 L4000.001000000000204 1500.000999999999976 L0.001 1500.000999999999976" style="stroke:#000000;stroke-width:1" fill-opacity="0" fill="none" stroke-dasharray="8" code="" leaf_id="0" data-leaf_id="0" origin="?" data-set_id="0" data-set_part_id="0"/>
<g code="ALU 2VTX" data-no-click="true"/>
<g code="ALU 2VTX">
<rect x="1940.500999999999976" y="1430.000999999999976" rx="90" ry="40" width="40" height="70" stroke="#000000" stroke-width="0.2%" fill="#808080" fill-opacity="1" stroke-opacity="1" sash_id="1" data-sash_id="1" leaf_id="2" origin="S" data-set_id="0" data-set_part_id="0"/>
<rect x="1935.500999999999976" y="1480.000999999999976" width="130" height="20" stroke="#000000" stroke-width="0.2%" fill="#000000" fill-opacity="1" stroke-opacity="1" sash_id="1" data-sash_id="1" leaf_id="2" origin="S" data-set_id="0" data-set_part_id="0"/>
<rect x="1935.500999999999976" y="1455.000999999999976" rx="90" ry="40" width="130" height="45" stroke="#000000" stroke-width="0.2%" fill="#000000" fill-opacity="1" stroke-opacity="1" sash_id="1" data-sash_id="1" leaf_id="2" origin="S" data-set_id="0" data-set_part_id="0"/>
<data-no-click>true</data-no-click>
</g>
<g code="ALU 2VTX">
<rect x="2048.001000000000204" y="403.000999999999976" rx="10" ry="10" width="120" height="20" stroke="#000000" stroke-width="0.1%" fill="#C8C8C8" fill-opacity="1" stroke-opacity="1" sash_id="1" data-sash_id="1" leaf_id="2" origin="S" data-set_id="0" data-set_part_id="0"/>
<rect x="2053.001000000000204" y="483.000999999999976" rx="10" ry="10" width="10" height="25" stroke="#000000" stroke-width="0.1%" fill="#C8C8C8" fill-opacity="1" stroke-opacity="1" sash_id="1" data-sash_id="1" leaf_id="2" origin="S" data-set_id="0" data-set_part_id="0"/>
<circle cx="2058.001000000000204" cy="483.000999999999976" r="9" stroke="#000000" stroke-width="0.1%" fill="#C8C8C8" fill-opacity="1" stroke-opacity="1" sash_id="1" data-sash_id="1" leaf_id="2" origin="S" data-set_id="0" data-set_part_id="0"/>
<data-no-click>true</data-no-click>
</g>
</g>
<g/>
</svg>